<svg version="1.1" id="Layer_1" xmlns="http://www.w3.org/2000/svg" xmlns:xlink="http://www.w3.org/1999/xlink" x="0px" y="0px"
	 width="100%" viewBox="0 0 1366 768" enable-background="new 0 0 1366 768" xml:space="preserve">
<path fill="#000000" opacity="0.000000" stroke="none" 
	d="
M981.000000,769.000000 
	C654.038208,769.000000 327.576355,769.000000 1.057274,769.000000 
	C1.057274,513.068115 1.057274,257.136261 1.057274,1.102180 
	C456.211945,1.102180 911.423889,1.102180 1366.817871,1.102180 
	C1366.817871,256.999878 1366.817871,512.999939 1366.817871,769.000000 
	C1238.469360,769.000000 1109.984619,769.000000 981.000000,769.000000 
M163.956528,276.571350 
	C163.768814,276.672333 163.581116,276.773315 163.393417,276.874359 
	C163.613373,276.886963 163.833328,276.899597 163.654678,277.545197 
	C191.752853,308.430725 223.752335,334.616699 259.357117,356.347443 
	C309.748444,387.102905 364.528320,405.595001 422.820679,414.014038 
	C432.362518,415.392151 441.951385,416.444824 451.518524,417.647888 
	C451.545288,417.891968 451.572021,418.136078 451.598755,418.380157 
	C424.085327,425.988525 396.571930,433.596893 369.058502,441.205261 
	C424.274933,464.653717 482.238159,468.073151 540.985535,468.137665 
	C522.530151,476.266907 504.074768,484.396118 485.619415,492.525360 
	C485.792175,493.329926 485.964905,494.134521 486.137665,494.939087 
	C524.627075,496.915070 563.116516,498.891052 602.661682,500.921234 
	C592.978699,508.389923 584.317627,515.070374 575.656555,521.750854 
	C575.886841,522.250366 576.117126,522.749878 576.347412,523.249390 
	C594.492065,523.249390 612.636719,523.249390 631.353271,523.249390 
	C627.765991,531.852295 624.490906,539.706360 620.901184,548.315002 
	C628.456543,545.633240 635.248596,543.222473 642.427490,540.674377 
	C642.612549,542.591431 642.813904,543.866943 642.847595,545.146912 
	C643.460510,568.437927 638.303040,590.339661 627.180908,610.852661 
	C615.780823,631.878174 600.187317,649.563477 583.469360,666.396118 
	C582.423828,667.448792 582.173340,669.291138 581.552979,670.766174 
	C583.184265,671.157166 584.900635,672.089844 586.432678,671.849060 
	C594.813110,670.532410 603.141357,668.888245 611.500916,667.433533 
	C619.118164,666.108154 626.752380,664.880920 634.976685,663.510864 
	C634.976685,684.549438 634.976685,704.776978 634.976685,725.487549 
	C659.412964,719.758850 670.178894,701.453796 678.596924,680.668701 
	C679.198059,681.343018 679.566162,681.561829 679.585693,681.808228 
	C679.756653,683.965698 679.841736,686.129822 679.996277,688.288818 
	C681.315002,706.709351 684.149597,724.676025 695.143005,740.298157 
	C697.448730,743.574768 699.822266,746.384583 704.907043,745.438843 
	C710.752991,726.136414 716.682190,706.559143 722.976257,685.777039 
	C731.654907,705.746460 742.814941,721.211487 765.294800,725.141602 
	C765.294800,704.519592 765.294800,684.283813 765.294800,663.543152 
	C782.853088,666.441162 799.824890,669.242371 817.693481,672.191589 
	C816.229919,670.094604 815.340576,668.750671 814.382202,667.457825 
	C802.387207,651.276978 790.233643,635.210999 778.423645,618.896362 
	C767.661194,604.028809 759.741821,587.824402 757.508240,569.335754 
	C756.374451,559.950562 756.353271,550.565735 758.837341,541.154663 
	C765.428833,543.415771 771.572998,545.523499 778.702881,547.969360 
	C775.164490,539.109497 772.053284,531.319275 768.731079,523.000793 
	C784.915405,523.000793 800.525330,523.050659 816.133728,522.921997 
	C817.656616,522.909485 819.170349,521.796631 820.688354,521.194519 
	C819.815857,519.805298 819.233521,518.051392 818.022461,517.087708 
	C811.440247,511.850067 804.703003,506.807434 797.051880,500.958160 
	C835.066467,498.934204 871.872131,496.974609 908.677795,495.015015 
	C909.021606,494.502625 909.365356,493.990204 909.709167,493.477814 
	C908.212280,491.822601 907.019836,489.567719 905.161560,488.624481 
	C899.538696,485.770386 893.655151,483.430542 887.877747,480.879913 
	C878.085144,476.556641 868.295959,472.225311 858.505371,467.897400 
	C917.322693,467.847229 975.362061,464.363617 1031.560303,441.582672 
	C1003.218689,433.721161 976.014343,426.175140 948.809998,418.629120 
	C950.347534,417.526123 951.784546,417.277283 953.227661,417.071411 
	C968.217041,414.932953 983.334534,413.452911 998.176453,410.559265 
	C1077.604492,395.073639 1147.497314,360.279266 1207.344116,305.721405 
	C1218.371338,295.668549 1228.477173,284.604889 1239.538086,273.940460 
	C1239.556030,273.727570 1239.573975,273.514648 1239.591919,273.301788 
	C1239.244263,273.420349 1238.896606,273.538910 1237.766357,273.657959 
	C1226.686157,276.622620 1215.591553,279.535156 1204.528076,282.560669 
	C1151.191284,297.146454 1097.369995,309.320557 1042.290894,315.248566 
	C1041.310425,315.354126 1040.294312,315.128082 1039.294800,315.056793 
	C1080.844727,298.663269 1120.674316,279.673004 1158.181885,255.933716 
	C1237.832642,205.521362 1292.390625,136.232910 1317.280151,44.607437 
	C1318.742920,39.222473 1320.021484,33.787411 1321.385620,28.375639 
	C1311.403320,35.896599 1302.206421,43.777588 1293.361450,52.035439 
	C1260.176147,83.017670 1224.883057,111.298805 1186.833984,136.118866 
	C1107.267700,188.021210 1020.701294,224.207733 929.313171,248.764069 
	C883.425537,261.094269 836.729126,270.424866 790.362549,280.953979 
	C780.226135,283.255859 772.987183,288.424255 770.495789,298.832947 
	C769.742188,301.981354 769.972168,305.365173 769.702454,309.370941 
	C766.759766,307.639404 763.990051,306.223206 761.447144,304.476746 
	C749.786743,296.468292 738.439453,287.975555 726.517883,280.381683 
	C702.025208,264.780121 675.326843,256.787048 646.036926,258.878143 
	C617.179565,260.938385 598.188416,277.532410 584.305176,301.306427 
	C582.728088,304.006989 582.469360,307.626984 582.203003,310.870209 
	C582.095459,312.179474 583.267578,314.222626 584.448242,314.896240 
	C588.763000,317.358002 609.996582,309.664429 612.869324,305.588196 
	C616.146362,300.938232 619.706238,296.109711 624.190918,292.762604 
	C635.615295,284.236206 649.039185,280.321930 663.014038,278.226868 
	C679.127380,275.811279 694.655396,278.415985 710.514160,283.468018 
	C698.304382,284.002747 686.662537,283.774597 675.231689,285.217255 
	C663.406311,286.709686 651.760071,289.708710 640.091736,292.302094 
	C636.757874,293.043030 633.078308,295.045593 634.294189,299.044037 
	C635.582947,303.282257 633.814819,305.800873 630.952393,307.379028 
	C626.098328,310.055237 620.850830,312.046722 615.681396,314.107056 
	C613.731445,314.884216 611.185608,314.510010 609.519470,315.594696 
	C602.971191,319.857788 595.900269,321.522308 588.182495,321.231812 
	C586.472656,321.167450 584.159485,321.383453 583.102234,322.444763 
	C578.392944,327.172516 573.371460,332.163361 574.994751,339.684967 
	C576.782104,347.966888 581.929443,353.939484 589.798706,358.942200 
	C588.760559,346.594635 594.957031,339.116455 602.954346,332.534637 
	C608.706177,327.800812 615.658142,326.789276 622.626221,326.378021 
	C637.215515,325.516968 650.145508,328.799408 658.324890,342.427765 
	C665.167786,353.829285 667.392944,372.502258 663.685425,384.039948 
	C661.307434,375.960175 659.492981,366.743561 655.916443,358.270782 
	C648.173035,339.926880 632.315979,331.854370 614.108887,335.903229 
	C603.866455,338.180939 598.478394,344.608459 598.116150,354.981445 
	C597.784485,364.479706 587.574890,370.119049 579.806335,364.688477 
	C575.231995,361.490875 570.846313,357.635193 567.419250,353.258423 
	C557.685303,340.827209 557.658325,330.694214 566.404175,317.634949 
	C567.021362,316.713318 567.988647,315.447021 567.761230,314.627136 
	C565.036621,304.803253 569.463928,296.805023 573.937317,288.711731 
	C577.852600,281.628082 574.402283,273.915009 566.528870,271.987030 
	C552.639709,268.585876 538.683533,265.454254 524.817261,261.964294 
	C447.131470,242.411819 371.146423,217.995483 298.857452,182.974640 
	C227.818100,148.559174 162.784546,105.359627 105.348160,51.020924 
	C96.311134,42.471291 87.505211,33.677372 78.479095,24.886021 
	C78.298843,25.476709 78.093628,25.781708 78.143944,26.036179 
	C89.059998,81.239403 111.626617,130.952652 147.672974,174.416229 
	C183.224106,217.282639 227.019501,249.522385 276.116638,275.081696 
	C305.216888,290.230865 335.570435,302.449890 366.144409,314.188751 
	C368.290039,315.012543 370.214783,316.411591 372.242249,317.543152 
	C372.087402,318.197937 371.932587,318.852722 371.777740,319.507507 
	C369.345306,319.507507 366.820007,319.941681 364.494110,319.443970 
	C308.388702,307.438477 252.312210,295.297882 196.209961,283.277527 
	C185.510651,280.985107 174.724869,279.096436 163.956528,276.571350 
z"/>
<path fill="#ffff00" opacity="1.000000" stroke="none" 
	d="
M163.978973,277.021515 
	C174.724869,279.096436 185.510651,280.985107 196.209961,283.277527 
	C252.312210,295.297882 308.388702,307.438477 364.494110,319.443970 
	C366.820007,319.941681 369.345306,319.507507 371.777740,319.507507 
	C371.932587,318.852722 372.087402,318.197937 372.242249,317.543152 
	C370.214783,316.411591 368.290039,315.012543 366.144409,314.188751 
	C335.570435,302.449890 305.216888,290.230865 276.116638,275.081696 
	C227.019501,249.522385 183.224106,217.282639 147.672974,174.416229 
	C111.626617,130.952652 89.059998,81.239403 78.143944,26.036179 
	C78.093628,25.781708 78.298843,25.476709 78.479095,24.886021 
	C87.505211,33.677372 96.311134,42.471291 105.348160,51.020924 
	C162.784546,105.359627 227.818100,148.559174 298.857452,182.974640 
	C371.146423,217.995483 447.131470,242.411819 524.817261,261.964294 
	C538.683533,265.454254 552.639709,268.585876 566.528870,271.987030 
	C574.402283,273.915009 577.852600,281.628082 573.937317,288.711731 
	C569.463928,296.805023 565.036621,304.803253 567.761230,314.627136 
	C567.988647,315.447021 567.021362,316.713318 566.404175,317.634949 
	C557.658325,330.694214 557.685303,340.827209 567.419250,353.258423 
	C570.846313,357.635193 575.231995,361.490875 579.806335,364.688477 
	C587.574890,370.119049 597.784485,364.479706 598.116150,354.981445 
	C598.478394,344.608459 603.866455,338.180939 614.108887,335.903229 
	C632.315979,331.854370 648.173035,339.926880 655.916443,358.270782 
	C659.492981,366.743561 661.307434,375.960175 663.685425,384.039948 
	C667.392944,372.502258 665.167786,353.829285 658.324890,342.427765 
	C650.145508,328.799408 637.215515,325.516968 622.626221,326.378021 
	C615.658142,326.789276 608.706177,327.800812 602.954346,332.534637 
	C594.957031,339.116455 588.760559,346.594635 589.798706,358.942200 
	C581.929443,353.939484 576.782104,347.966888 574.994751,339.684967 
	C573.371460,332.163361 578.392944,327.172516 583.102234,322.444763 
	C584.159485,321.383453 586.472656,321.167450 588.182495,321.231812 
	C595.900269,321.522308 602.971191,319.857788 609.519470,315.594696 
	C611.185608,314.510010 613.731445,314.884216 615.681396,314.107056 
	C620.850830,312.046722 626.098328,310.055237 630.952393,307.379028 
	C633.814819,305.800873 635.582947,303.282257 634.294189,299.044037 
	C633.078308,295.045593 636.757874,293.043030 640.091736,292.302094 
	C651.760071,289.708710 663.406311,286.709686 675.231689,285.217255 
	C686.662537,283.774597 698.304382,284.002747 710.514160,283.468018 
	C694.655396,278.415985 679.127380,275.811279 663.014038,278.226868 
	C649.039185,280.321930 635.615295,284.236206 624.190918,292.762604 
	C619.706238,296.109711 616.146362,300.938232 612.869324,305.588196 
	C609.996582,309.664429 588.763000,317.358002 584.448242,314.896240 
	C583.267578,314.222626 582.095459,312.179474 582.203003,310.870209 
	C582.469360,307.626984 582.728088,304.006989 584.305176,301.306427 
	C598.188416,277.532410 617.179565,260.938385 646.036926,258.878143 
	C675.326843,256.787048 702.025208,264.780121 726.517883,280.381683 
	C738.439453,287.975555 749.786743,296.468292 761.447144,304.476746 
	C763.990051,306.223206 766.759766,307.639404 769.702454,309.370941 
	C769.972168,305.365173 769.742188,301.981354 770.495789,298.832947 
	C772.987183,288.424255 780.226135,283.255859 790.362549,280.953979 
	C836.729126,270.424866 883.425537,261.094269 929.313171,248.764069 
	C1020.701294,224.207733 1107.267700,188.021210 1186.833984,136.118866 
	C1224.883057,111.298805 1260.176147,83.017670 1293.361450,52.035439 
	C1302.206421,43.777588 1311.403320,35.896599 1321.385620,28.375639 
	C1320.021484,33.787411 1318.742920,39.222473 1317.280151,44.607437 
	C1292.390625,136.232910 1237.832642,205.521362 1158.181885,255.933716 
	C1120.674316,279.673004 1080.844727,298.663269 1039.294800,315.056793 
	C1040.294312,315.128082 1041.310425,315.354126 1042.290894,315.248566 
	C1097.369995,309.320557 1151.191284,297.146454 1204.528076,282.560669 
	C1215.591553,279.535156 1226.686157,276.622620 1238.272949,273.744629 
	C1238.779541,273.831268 1239.008301,274.007751 1239.008301,274.007751 
	C1228.477173,284.604889 1218.371338,295.668549 1207.344116,305.721405 
	C1147.497314,360.279266 1077.604492,395.073639 998.176453,410.559265 
	C983.334534,413.452911 968.217041,414.932953 953.227661,417.071411 
	C951.784546,417.277283 950.347534,417.526123 948.809998,418.629120 
	C976.014343,426.175140 1003.218689,433.721161 1031.560303,441.582672 
	C975.362061,464.363617 917.322693,467.847229 858.505371,467.897400 
	C868.295959,472.225311 878.085144,476.556641 887.877747,480.879913 
	C893.655151,483.430542 899.538696,485.770386 905.161560,488.624481 
	C907.019836,489.567719 908.212280,491.822601 909.709167,493.477814 
	C909.365356,493.990204 909.021606,494.502625 908.677795,495.015015 
	C871.872131,496.974609 835.066467,498.934204 797.051880,500.958160 
	C804.703003,506.807434 811.440247,511.850067 818.022461,517.087708 
	C819.233521,518.051392 819.815857,519.805298 820.688354,521.194519 
	C819.170349,521.796631 817.656616,522.909485 816.133728,522.921997 
	C800.525330,523.050659 784.915405,523.000793 768.731079,523.000793 
	C772.053284,531.319275 775.164490,539.109497 778.702881,547.969360 
	C771.572998,545.523499 765.428833,543.415771 758.837341,541.154663 
	C756.353271,550.565735 756.374451,559.950562 757.508240,569.335754 
	C759.741821,587.824402 767.661194,604.028809 778.423645,618.896362 
	C790.233643,635.210999 802.387207,651.276978 814.382202,667.457825 
	C815.340576,668.750671 816.229919,670.094604 817.693481,672.191589 
	C799.824890,669.242371 782.853088,666.441162 765.294800,663.543152 
	C765.294800,684.283813 765.294800,704.519592 765.294800,725.141602 
	C742.814941,721.211487 731.654907,705.746460 722.976257,685.777039 
	C716.682190,706.559143 710.752991,726.136414 704.907043,745.438843 
	C699.822266,746.384583 697.448730,743.574768 695.143005,740.298157 
	C684.149597,724.676025 681.315002,706.709351 679.996277,688.288818 
	C679.841736,686.129822 679.756653,683.965698 679.585693,681.808228 
	C679.566162,681.561829 679.198059,681.343018 678.596924,680.668701 
	C670.178894,701.453796 659.412964,719.758850 634.976685,725.487549 
	C634.976685,704.776978 634.976685,684.549438 634.976685,663.510864 
	C626.752380,664.880920 619.118164,666.108154 611.500916,667.433533 
	C603.141357,668.888245 594.813110,670.532410 586.432678,671.849060 
	C584.900635,672.089844 583.184265,671.157166 581.552979,670.766174 
	C582.173340,669.291138 582.423828,667.448792 583.469360,666.396118 
	C600.187317,649.563477 615.780823,631.878174 627.180908,610.852661 
	C638.303040,590.339661 643.460510,568.437927 642.847595,545.146912 
	C642.813904,543.866943 642.612549,542.591431 642.427490,540.674377 
	C635.248596,543.222473 628.456543,545.633240 620.901184,548.315002 
	C624.490906,539.706360 627.765991,531.852295 631.353271,523.249390 
	C612.636719,523.249390 594.492065,523.249390 576.347412,523.249390 
	C576.117126,522.749878 575.886841,522.250366 575.656555,521.750854 
	C584.317627,515.070374 592.978699,508.389923 602.661682,500.921234 
	C563.116516,498.891052 524.627075,496.915070 486.137665,494.939087 
	C485.964905,494.134521 485.792175,493.329926 485.619415,492.525360 
	C504.074768,484.396118 522.530151,476.266907 540.985535,468.137665 
	C482.238159,468.073151 424.274933,464.653717 369.058502,441.205261 
	C396.571930,433.596893 424.085327,425.988525 451.598755,418.380157 
	C451.572021,418.136078 451.545288,417.891968 451.518524,417.647888 
	C441.951385,416.444824 432.362518,415.392151 422.820679,414.014038 
	C364.528320,405.595001 309.748444,387.102905 259.357117,356.347443 
	C223.752335,334.616699 191.752853,308.430725 163.837143,277.257202 
	C164.019608,276.969208 163.978973,277.021515 163.978973,277.021515 
z"/>
<path fill="#F8F840" opacity="1.000000" stroke="none" 
	d="
M1238.664307,273.744385 
	C1238.896606,273.538910 1239.244263,273.420349 1239.591919,273.301758 
	C1239.573975,273.514648 1239.556030,273.727570 1239.273193,273.974121 
	C1239.008301,274.007751 1238.779541,273.831268 1238.664307,273.744385 
z"/>
<path fill="#F8F840" opacity="1.000000" stroke="none" 
	d="
M164.036438,276.940735 
	C163.833328,276.899597 163.613373,276.886963 163.393417,276.874329 
	C163.581116,276.773315 163.768814,276.672333 163.967743,276.796448 
	C163.978973,277.021515 164.019608,276.969208 164.036438,276.940735 
z"/>
</svg>