<svg version="1.1" id="Layer_1" xmlns="http://www.w3.org/2000/svg" xmlns:xlink="http://www.w3.org/1999/xlink" x="0px" y="0px"
	 width="100%" viewBox="0 0 765 765" enable-background="new 0 0 765 765" xml:space="preserve">
<path fill="#000000" opacity="0.000000" stroke="none" 
	d="
M766.000000,299.000000 
	C766.000000,455.000000 766.000000,610.500000 766.000000,766.000000 
	C511.000000,766.000000 256.000000,766.000000 1.000000,766.000000 
	C1.000000,511.000000 1.000000,256.000000 1.000000,1.000000 
	C256.000000,1.000000 511.000000,1.000000 766.000000,1.000000 
	C766.000000,100.166664 766.000000,199.333328 766.000000,299.000000 
M244.111725,708.108215 
	C244.237366,708.226929 244.363007,708.345703 244.399673,709.226196 
	C241.104446,719.984619 239.236282,731.399963 229.046494,740.263123 
	C238.505188,738.179504 246.354858,736.681641 249.091675,726.987488 
	C252.169540,716.085266 257.012787,712.841064 268.213531,714.255371 
	C273.199066,714.884827 275.429626,713.086975 276.031799,708.473511 
	C276.801300,702.577698 277.533020,696.677002 278.284882,690.748291 
	C280.179993,690.748291 281.824615,690.789124 283.466705,690.741760 
	C294.782257,690.415588 306.122955,690.427917 317.404144,689.616638 
	C326.016541,688.997192 328.000885,686.210815 329.314301,677.859558 
	C330.445618,670.666321 331.783325,663.440674 333.878235,656.484863 
	C335.492523,651.124878 338.172028,650.976501 341.376404,655.452271 
	C343.308228,658.150574 344.889618,661.096985 346.703186,663.883301 
	C350.859650,670.269104 355.061890,676.625122 359.431396,683.276184 
	C366.948822,678.303101 374.708282,679.913208 382.279114,679.814087 
	C385.889038,679.766846 387.761993,680.701904 388.635864,684.837097 
	C390.647308,694.355347 392.664703,695.714722 402.375702,694.884216 
	C409.664612,694.260864 416.109589,695.385437 421.890625,700.243469 
	C424.383728,702.338501 427.639191,703.533325 430.567108,705.102112 
	C434.486298,707.202087 437.471100,706.664978 439.441467,702.259827 
	C440.450806,700.003235 441.844757,697.873901 443.325897,695.881042 
	C448.612091,688.768921 451.087860,688.816467 455.945831,695.940308 
	C459.085266,700.544006 462.998199,703.981873 468.693848,704.921448 
	C469.282562,701.006042 469.804749,697.533020 470.182953,695.017639 
	C474.869629,695.017639 478.527924,695.447693 482.004730,694.839722 
	C483.795868,694.526428 485.522827,692.575500 486.811096,690.985596 
	C488.350311,689.086060 488.944824,685.801819 490.787323,684.965759 
	C492.227509,684.312256 494.974609,686.420898 497.083252,687.423706 
	C497.808655,687.768738 498.406708,688.435120 498.982361,689.032471 
	C502.136932,692.305481 504.961487,692.025696 508.454742,689.100769 
	C510.356964,687.507874 513.632324,686.200500 515.918152,686.649536 
	C527.058533,688.837830 536.966614,685.264282 546.726685,680.879883 
	C548.345886,680.152527 549.739197,678.198364 550.532593,676.485046 
	C553.552002,669.964722 556.116821,663.260986 555.126282,655.836304 
	C554.647461,652.247864 556.314331,650.747314 559.697266,650.119202 
	C569.109558,648.371826 571.226562,643.141235 565.857605,635.252930 
	C563.149658,631.274353 559.886658,627.579834 557.772095,623.312256 
	C554.218567,616.140747 549.059021,610.818420 542.115234,607.086304 
	C530.109558,600.633545 518.073669,594.236938 506.073700,587.773560 
	C495.129852,581.879028 484.151733,576.043152 473.314575,569.957336 
	C466.691650,566.238159 460.609039,561.430664 453.740753,558.305176 
	C444.288422,554.003723 437.299530,547.068054 430.877228,539.420166 
	C429.113892,537.320374 427.680511,533.755676 428.116730,531.209473 
	C429.707489,521.925171 431.637329,512.624878 434.462799,503.652893 
	C436.263977,497.933533 439.897308,497.671570 444.235199,502.040131 
	C448.220001,506.053101 451.673431,510.648438 455.937134,514.317688 
	C463.372650,520.716492 466.005981,519.752502 468.907288,510.413544 
	C471.155548,503.176697 472.633087,502.435516 479.668427,505.015503 
	C490.784241,509.091949 500.196014,506.995483 507.775208,497.871246 
	C510.535736,494.548004 513.198425,493.843536 517.187561,494.007172 
	C519.379089,494.097076 523.199341,492.544769 523.638489,490.986816 
	C526.105042,482.236206 533.038147,478.844696 540.489502,477.142303 
	C547.645386,475.507416 555.240234,475.171692 562.623718,475.302765 
	C573.315918,475.492554 581.182922,471.648499 586.686462,462.350159 
	C588.566772,459.173370 591.251282,455.903107 594.390686,454.139771 
	C607.854248,446.577637 616.789246,434.420502 626.754150,423.304138 
	C628.007568,421.905884 628.435364,419.734772 629.138428,417.881073 
	C633.315674,406.866364 637.499329,395.853790 641.597717,384.809601 
	C643.096069,380.771790 644.655151,376.718170 645.649536,372.543823 
	C646.449646,369.184723 645.801270,366.043915 642.318481,363.928436 
	C635.539490,359.810791 635.741882,352.381134 641.904053,347.115509 
	C646.770264,342.957306 651.571289,338.368652 655.138794,333.114044 
	C664.257324,319.683136 670.490662,304.949219 674.050659,288.949524 
	C675.482788,282.513367 679.049133,277.456543 669.966736,273.423798 
	C664.532715,271.010956 665.819702,264.691498 671.405151,261.929474 
	C673.341614,260.971893 675.292053,260.036774 677.186340,259.000397 
	C683.556091,255.515427 686.249390,248.782272 683.295349,242.180954 
	C680.446716,235.815262 680.058167,229.370605 680.946411,222.651123 
	C682.193848,213.213669 682.168274,213.210281 672.848328,211.180649 
	C668.206787,210.169846 667.330688,207.741165 670.094177,203.684082 
	C671.508301,201.608002 672.840210,199.475952 675.099976,195.998520 
	C671.158447,195.998520 668.904358,196.063217 666.655273,195.984818 
	C662.212891,195.829926 660.576416,193.847870 662.670166,189.989304 
	C665.153870,185.412277 668.125732,180.877686 671.777466,177.212967 
	C676.406799,172.567245 679.367249,167.357895 681.198120,160.995148 
	C676.175537,161.400665 674.144592,158.612152 673.962708,154.681778 
	C673.844910,152.133804 674.791931,149.488937 675.515198,146.959946 
	C676.864197,142.243057 678.397766,137.578979 679.981445,132.484497 
	C675.229858,131.790527 671.403870,131.534195 667.735352,130.635147 
	C659.201111,128.543671 657.809631,123.667542 663.380859,117.050911 
	C666.799438,112.990868 670.298401,108.857246 672.801636,104.236786 
	C673.811523,102.372833 672.259399,99.120850 671.873230,96.500542 
	C670.102356,96.842010 668.153809,96.824493 666.595642,97.595810 
	C662.728516,99.510078 658.807739,101.470520 655.356812,104.019394 
	C652.862854,105.861473 650.473755,108.374535 649.119019,111.121521 
	C646.186890,117.067238 643.183594,122.461014 635.418579,122.109642 
	C633.699463,122.031860 631.998535,121.552856 630.289246,121.258606 
	C630.649719,119.536858 630.707581,117.676704 631.421204,116.116493 
	C635.151001,107.962158 639.052917,99.886604 642.883240,91.778122 
	C644.757324,87.810814 644.138855,84.175598 641.895813,80.438789 
	C640.199036,77.612030 638.324768,77.502861 636.356750,79.495285 
	C634.401672,81.474571 632.656738,83.774063 631.285034,86.196671 
	C626.392883,94.836807 621.887695,103.700394 616.851562,112.252953 
	C614.252319,116.667107 609.840088,117.095970 604.822754,115.892181 
	C607.919556,106.775940 611.324524,98.104355 613.799622,89.174988 
	C618.457275,72.371445 622.772156,55.464737 626.764771,38.491573 
	C627.596008,34.957645 626.979736,30.784378 625.951111,27.217001 
	C625.266174,24.841576 622.666016,23.018408 620.923035,20.948063 
	C619.224548,22.607573 617.063782,23.995293 615.902405,25.970606 
	C608.218079,39.041256 604.151550,53.624638 601.467834,68.212257 
	C597.959900,87.279892 590.391602,104.734116 583.512451,122.527397 
	C582.519775,125.095016 580.324646,127.197746 578.685974,129.515625 
	C578.197693,129.331680 577.709351,129.147736 577.221069,128.963806 
	C577.221069,125.579300 576.785522,122.127937 577.292969,118.821320 
	C580.215027,99.782005 580.937927,80.657402 578.887634,61.541542 
	C577.435303,48.000942 575.107422,34.545029 572.790039,21.116940 
	C572.463379,19.224010 570.221985,16.670778 568.427917,16.236435 
	C565.108459,15.432825 563.396912,18.242069 562.783875,21.231478 
	C561.984375,25.130251 561.067871,29.070015 560.897095,33.022186 
	C559.818726,57.977001 559.118103,82.949089 557.912354,107.897087 
	C557.215027,122.327751 552.738770,135.983643 547.608032,149.363480 
	C546.836670,151.374985 544.112305,154.215607 542.663818,154.012802 
	C540.585754,153.721878 538.637024,151.159912 537.053467,149.223679 
	C536.196289,148.175583 535.953613,146.427567 535.877563,144.972107 
	C535.547729,138.659988 534.768555,132.289200 535.279968,126.031876 
	C536.439880,111.838753 536.249390,97.749107 533.935120,83.708740 
	C532.747620,76.504745 531.695068,69.235870 529.757629,62.223972 
	C529.171326,60.101906 526.034546,58.056313 523.652588,57.328259 
	C522.491943,56.973511 519.798218,59.412128 518.846008,61.157719 
	C517.642700,63.363480 517.024597,66.146812 516.997681,68.689941 
	C516.897278,78.185303 517.385315,87.688774 517.211426,97.181122 
	C516.662537,127.151260 510.482971,156.783890 511.729004,186.875259 
	C511.803467,188.673630 511.071167,190.492706 511.017883,192.311050 
	C510.504272,209.833496 503.257538,224.760651 493.157349,238.552063 
	C492.321472,239.693375 490.571289,240.165085 489.245911,240.947891 
	C488.845856,239.584763 488.130096,238.228470 488.100433,236.857330 
	C487.972565,230.942917 488.045746,225.024139 488.045746,219.106964 
	C487.465759,218.975235 486.885773,218.843521 486.305756,218.711792 
	C485.088837,219.732269 483.895599,220.782654 482.651184,221.768478 
	C473.045135,229.378250 469.872742,240.530777 466.457153,251.478745 
	C462.156891,265.262360 458.174500,279.144867 453.939606,292.949310 
	C450.776703,303.259369 444.922180,311.667664 436.388031,318.425537 
	C431.057892,322.646301 426.374237,327.683197 421.397552,332.350769 
	C410.730927,342.354828 399.578796,351.482910 384.293762,353.351227 
	C378.105438,354.107697 374.126221,357.653290 370.359619,362.651398 
	C365.731323,368.792938 360.090546,374.359650 354.143738,379.275085 
	C345.335449,386.555817 335.929718,393.123688 326.652039,399.820038 
	C324.128265,401.641571 321.277771,403.186188 318.354340,404.239075 
	C313.295288,406.061157 310.395660,403.850159 311.005432,398.584869 
	C311.519806,394.143616 312.814331,389.798370 313.602692,385.381927 
	C315.125397,376.851715 314.354980,368.749115 308.495270,361.827728 
	C303.901367,356.401459 301.997284,349.960114 301.006836,343.106781 
	C300.245148,337.836304 299.201324,332.601898 298.587189,327.316101 
	C297.950195,321.833679 295.309448,318.317108 290.154327,316.119080 
	C283.193451,313.151123 279.206543,307.893372 278.758179,299.964783 
	C278.596710,297.108795 277.404449,294.073578 275.911987,291.581726 
	C273.136505,286.947754 272.546265,282.309662 274.125702,277.238220 
	C274.816925,275.018677 275.479462,272.769562 275.887878,270.486084 
	C277.719788,260.244385 271.618988,254.279617 261.434418,256.647003 
	C257.626373,257.532196 254.047821,259.404785 249.514847,261.155365 
	C249.514847,258.548309 249.329239,256.193726 249.549866,253.877838 
	C250.195572,247.099548 251.220810,240.350647 251.655838,233.561935 
	C251.874878,230.144150 250.307358,228.419724 246.105423,228.708130 
	C242.489090,228.956329 238.676376,227.623550 235.085587,226.541489 
	C232.415421,225.736847 230.062317,223.540878 227.391830,223.140961 
	C219.821945,222.007416 217.758850,216.771973 217.187134,210.417221 
	C216.876129,206.960175 216.906235,203.375992 217.465714,199.961090 
	C218.191284,195.532471 216.373199,193.230988 212.363739,192.348221 
	C208.470886,191.491119 204.493713,191.016327 200.601929,190.155106 
	C197.773712,189.529236 195.945221,188.250107 196.474915,184.583267 
	C196.711075,182.948456 195.371216,180.193985 193.934555,179.378540 
	C189.800613,177.032242 183.276459,175.914536 180.355560,182.495789 
	C179.917618,183.482559 178.961746,184.239471 178.012085,185.383987 
	C176.757309,180.433731 176.008194,176.205215 174.578079,172.221161 
	C173.333496,168.753967 170.575394,167.062393 167.169601,169.663391 
	C163.391052,172.549026 159.908340,175.828903 156.369583,179.017868 
	C155.157074,180.110504 154.164322,181.446960 153.071182,182.672028 
	C152.666382,182.485443 152.261597,182.298859 151.856796,182.112259 
	C151.856796,180.560745 151.844345,179.009109 151.858765,177.457733 
	C151.966965,165.809769 152.166809,154.161377 152.102127,142.514420 
	C152.092056,140.700775 150.882477,138.893784 150.227585,137.083710 
	C149.697464,137.085190 149.167343,137.086670 148.637238,137.088150 
	C147.428467,138.984741 145.960068,140.766113 145.057892,142.798767 
	C141.891327,149.933304 138.959930,157.171921 135.839493,164.327515 
	C135.224823,165.737061 134.166412,166.953079 133.312653,168.258347 
	C132.291916,163.664734 132.358261,159.568375 132.279724,155.474792 
	C132.021149,141.996719 131.759689,128.518097 131.340378,115.044632 
	C131.299667,113.736221 130.175644,111.399734 129.525070,111.389389 
	C128.096573,111.366669 125.947617,112.143005 125.326630,113.271851 
	C121.999077,119.320808 117.412605,125.311119 116.350235,131.825470 
	C114.707542,141.898315 115.580986,152.378952 115.337891,162.685486 
	C115.303085,164.161118 114.991524,165.630234 114.808044,167.102356 
	C114.356995,167.071381 113.905937,167.040405 113.454887,167.009430 
	C112.975052,165.312637 112.462845,163.624222 112.020546,161.917694 
	C108.642342,148.883789 105.378525,135.819138 101.869026,122.820770 
	C99.938271,115.669678 95.017197,112.023315 87.806641,111.637177 
	C83.765724,111.420776 81.710869,113.059227 82.343727,117.213699 
	C83.170181,122.639076 83.912193,128.094757 85.112328,133.442764 
	C90.445923,157.210037 96.807175,180.596893 111.275108,200.837296 
	C112.522263,202.582031 113.415100,204.587860 114.403931,206.507736 
	C116.258369,210.108231 116.199020,213.257416 112.080986,215.273804 
	C108.456841,217.048325 108.472260,220.076324 109.221718,223.367966 
	C111.051506,231.404465 116.371002,236.802933 123.043938,240.936951 
	C134.070786,247.768265 144.975296,254.875244 156.430420,260.920380 
	C178.607117,272.623535 203.313522,317.886169 199.933517,343.140137 
	C199.057419,349.686096 201.000046,355.564545 203.373627,361.509094 
	C207.495346,371.831818 211.570511,382.189850 215.127319,392.714813 
	C217.076492,398.482697 215.181656,402.150299 209.959747,405.257935 
	C207.970535,406.441742 205.870483,407.639893 203.660431,408.220520 
	C185.429550,413.010193 174.349823,426.378174 164.145248,440.844757 
	C159.747086,447.079834 158.323975,453.757965 160.841797,461.138611 
	C163.896774,470.093842 163.033020,479.091919 161.621216,488.270142 
	C160.439392,495.953156 159.521255,503.907776 160.255051,511.572815 
	C160.741379,516.652954 163.983261,521.656433 166.760284,526.227173 
	C167.712448,527.794373 171.233139,528.890259 173.136841,528.417053 
	C174.462357,528.087585 175.927200,524.642944 175.770416,522.716919 
	C175.305771,517.009033 177.657684,512.714478 181.273697,508.819427 
	C184.786179,505.035919 188.807159,501.652802 191.884628,497.553192 
	C197.104294,490.600006 202.789230,490.359467 210.246048,493.921021 
	C221.188583,499.147522 232.811554,502.970490 240.311981,513.530212 
	C249.075180,525.867676 249.274643,541.453552 236.792053,551.432312 
	C231.849091,555.383850 227.053879,559.530273 221.984970,563.311279 
	C216.473633,567.422363 213.365585,572.908997 211.933990,579.440918 
	C210.225388,587.236633 208.681381,595.068665 207.081879,602.888123 
	C206.072830,607.821045 203.407700,610.524048 198.114014,611.356201 
	C181.493866,613.968872 164.880508,613.267822 148.281677,611.719482 
	C138.103775,610.770081 130.023849,614.849121 123.155510,621.529785 
	C121.246666,623.386475 119.730080,627.589478 120.502800,629.884705 
	C122.568665,636.020935 125.974602,641.706055 128.848053,647.570435 
	C129.291779,647.444763 129.735504,647.319092 130.179230,647.193420 
	C129.934174,642.461731 129.673553,637.730835 129.449661,632.998169 
	C129.307205,629.987122 129.926910,627.518250 133.763885,627.952576 
	C142.979645,628.995789 152.189026,630.095581 161.381912,631.170288 
	C157.178665,644.285400 157.478165,646.014954 164.394333,651.565979 
	C167.542267,646.893555 170.493622,642.004883 173.967468,637.521057 
	C176.640823,634.070496 180.714355,634.057861 184.527847,635.265076 
	C188.181793,636.421753 190.954346,638.658447 191.335373,642.977356 
	C191.686234,646.954163 192.593857,650.900391 192.709885,654.876038 
	C193.060135,666.878296 188.540771,671.472900 176.506744,671.815796 
	C175.117447,671.855408 173.731491,672.011841 171.836441,672.151489 
	C180.211716,678.671021 185.297806,678.463196 192.741653,672.534973 
	C201.792480,665.327026 207.823715,657.656494 203.513046,644.828918 
	C201.204117,637.958069 205.190689,633.922974 212.399353,633.005371 
	C215.041138,632.669006 217.671799,632.243164 220.315460,631.923828 
	C237.370758,629.863953 252.735779,624.756165 263.133453,609.660767 
	C264.889069,607.111938 268.212769,604.601074 271.132355,604.151123 
	C275.079773,603.542664 279.916199,603.950562 283.228943,605.881836 
	C285.016388,606.923889 285.385284,612.267700 284.693939,615.280518 
	C283.481750,620.563049 281.552185,625.880981 278.877686,630.590271 
	C271.054321,644.365784 267.771057,659.008362 269.096649,674.706848 
	C269.349945,677.706665 268.165283,678.710083 265.445618,679.400940 
	C258.038208,681.282410 250.792435,683.861084 243.330460,685.447998 
	C237.380539,686.713440 231.182114,687.646179 225.138306,687.438477 
	C216.063293,687.126465 214.803696,687.928223 215.771912,696.964050 
	C215.798935,697.216248 215.555176,697.497498 215.435150,697.764099 
	C204.249741,698.517212 203.132568,699.158936 200.182816,708.510742 
	C198.637894,713.408630 197.698166,718.496155 196.451981,723.489868 
	C195.477173,727.396118 197.401779,729.651917 200.862350,730.601868 
	C203.653793,731.368164 206.598984,731.574463 209.704651,732.065369 
	C208.887253,725.324463 208.156448,719.297668 207.338303,712.550537 
	C217.335876,714.399414 226.677841,714.159180 235.690140,710.315979 
	C238.270782,709.215576 241.053101,708.588013 244.111725,708.108215 
z"/>
<path fill="#ffff00" opacity="1.000000" stroke="none" 
	d="
M243.742950,707.743591 
	C241.053101,708.588013 238.270782,709.215576 235.690140,710.315979 
	C226.677841,714.159180 217.335876,714.399414 207.338303,712.550537 
	C208.156448,719.297668 208.887253,725.324463 209.704651,732.065369 
	C206.598984,731.574463 203.653793,731.368164 200.862350,730.601868 
	C197.401779,729.651917 195.477173,727.396118 196.451981,723.489868 
	C197.698166,718.496155 198.637894,713.408630 200.182816,708.510742 
	C203.132568,699.158936 204.249741,698.517212 215.436417,697.764648 
	C215.555176,697.497498 215.798935,697.216248 215.771912,696.964050 
	C214.803696,687.928223 216.063293,687.126465 225.138306,687.438477 
	C231.182114,687.646179 237.380539,686.713440 243.330460,685.447998 
	C250.792435,683.861084 258.038208,681.282410 265.445618,679.400940 
	C268.165283,678.710083 269.349945,677.706665 269.096649,674.706848 
	C267.771057,659.008362 271.054321,644.365784 278.877686,630.590271 
	C281.552185,625.880981 283.481750,620.563049 284.693939,615.280518 
	C285.385284,612.267700 285.016388,606.923889 283.228943,605.881836 
	C279.916199,603.950562 275.079773,603.542664 271.132355,604.151123 
	C268.212769,604.601074 264.889069,607.111938 263.133453,609.660767 
	C252.735779,624.756165 237.370758,629.863953 220.315460,631.923828 
	C217.671799,632.243164 215.041138,632.669006 212.399353,633.005371 
	C205.190689,633.922974 201.204117,637.958069 203.513046,644.828918 
	C207.823715,657.656494 201.792480,665.327026 192.741653,672.534973 
	C185.297806,678.463196 180.211716,678.671021 171.836441,672.151489 
	C173.731491,672.011841 175.117447,671.855408 176.506744,671.815796 
	C188.540771,671.472900 193.060135,666.878296 192.709885,654.876038 
	C192.593857,650.900391 191.686234,646.954163 191.335373,642.977356 
	C190.954346,638.658447 188.181793,636.421753 184.527847,635.265076 
	C180.714355,634.057861 176.640823,634.070496 173.967468,637.521057 
	C170.493622,642.004883 167.542267,646.893555 164.394333,651.565979 
	C157.478165,646.014954 157.178665,644.285400 161.381912,631.170288 
	C152.189026,630.095581 142.979645,628.995789 133.763885,627.952576 
	C129.926910,627.518250 129.307205,629.987122 129.449661,632.998169 
	C129.673553,637.730835 129.934174,642.461731 130.179230,647.193420 
	C129.735504,647.319092 129.291779,647.444763 128.848053,647.570435 
	C125.974602,641.706055 122.568665,636.020935 120.502800,629.884705 
	C119.730080,627.589478 121.246666,623.386475 123.155510,621.529785 
	C130.023849,614.849121 138.103775,610.770081 148.281677,611.719482 
	C164.880508,613.267822 181.493866,613.968872 198.114014,611.356201 
	C203.407700,610.524048 206.072830,607.821045 207.081879,602.888123 
	C208.681381,595.068665 210.225388,587.236633 211.933990,579.440918 
	C213.365585,572.908997 216.473633,567.422363 221.984970,563.311279 
	C227.053879,559.530273 231.849091,555.383850 236.792053,551.432312 
	C249.274643,541.453552 249.075180,525.867676 240.311981,513.530212 
	C232.811554,502.970490 221.188583,499.147522 210.246048,493.921021 
	C202.789230,490.359467 197.104294,490.600006 191.884628,497.553192 
	C188.807159,501.652802 184.786179,505.035919 181.273697,508.819427 
	C177.657684,512.714478 175.305771,517.009033 175.770416,522.716919 
	C175.927200,524.642944 174.462357,528.087585 173.136841,528.417053 
	C171.233139,528.890259 167.712448,527.794373 166.760284,526.227173 
	C163.983261,521.656433 160.741379,516.652954 160.255051,511.572815 
	C159.521255,503.907776 160.439392,495.953156 161.621216,488.270142 
	C163.033020,479.091919 163.896774,470.093842 160.841797,461.138611 
	C158.323975,453.757965 159.747086,447.079834 164.145248,440.844757 
	C174.349823,426.378174 185.429550,413.010193 203.660431,408.220520 
	C205.870483,407.639893 207.970535,406.441742 209.959747,405.257935 
	C215.181656,402.150299 217.076492,398.482697 215.127319,392.714813 
	C211.570511,382.189850 207.495346,371.831818 203.373627,361.509094 
	C201.000046,355.564545 199.057419,349.686096 199.933517,343.140137 
	C203.313522,317.886169 178.607117,272.623535 156.430420,260.920380 
	C144.975296,254.875244 134.070786,247.768265 123.043938,240.936951 
	C116.371002,236.802933 111.051506,231.404465 109.221718,223.367966 
	C108.472260,220.076324 108.456841,217.048325 112.080986,215.273804 
	C116.199020,213.257416 116.258369,210.108231 114.403931,206.507736 
	C113.415100,204.587860 112.522263,202.582031 111.275108,200.837296 
	C96.807175,180.596893 90.445923,157.210037 85.112328,133.442764 
	C83.912193,128.094757 83.170181,122.639076 82.343727,117.213699 
	C81.710869,113.059227 83.765724,111.420776 87.806641,111.637177 
	C95.017197,112.023315 99.938271,115.669678 101.869026,122.820770 
	C105.378525,135.819138 108.642342,148.883789 112.020546,161.917694 
	C112.462845,163.624222 112.975052,165.312637 113.454887,167.009430 
	C113.905937,167.040405 114.356995,167.071381 114.808044,167.102356 
	C114.991524,165.630234 115.303085,164.161118 115.337891,162.685486 
	C115.580986,152.378952 114.707542,141.898315 116.350235,131.825470 
	C117.412605,125.311119 121.999077,119.320808 125.326630,113.271851 
	C125.947617,112.143005 128.096573,111.366669 129.525070,111.389389 
	C130.175644,111.399734 131.299667,113.736221 131.340378,115.044632 
	C131.759689,128.518097 132.021149,141.996719 132.279724,155.474792 
	C132.358261,159.568375 132.291916,163.664734 133.312653,168.258347 
	C134.166412,166.953079 135.224823,165.737061 135.839493,164.327515 
	C138.959930,157.171921 141.891327,149.933304 145.057892,142.798767 
	C145.960068,140.766113 147.428467,138.984741 148.637238,137.088150 
	C149.167343,137.086670 149.697464,137.085190 150.227585,137.083710 
	C150.882477,138.893784 152.092056,140.700775 152.102127,142.514420 
	C152.166809,154.161377 151.966965,165.809769 151.858765,177.457733 
	C151.844345,179.009109 151.856796,180.560745 151.856796,182.112259 
	C152.261597,182.298859 152.666382,182.485443 153.071182,182.672028 
	C154.164322,181.446960 155.157074,180.110504 156.369583,179.017868 
	C159.908340,175.828903 163.391052,172.549026 167.169601,169.663391 
	C170.575394,167.062393 173.333496,168.753967 174.578079,172.221161 
	C176.008194,176.205215 176.757309,180.433731 178.012085,185.383987 
	C178.961746,184.239471 179.917618,183.482559 180.355560,182.495789 
	C183.276459,175.914536 189.800613,177.032242 193.934555,179.378540 
	C195.371216,180.193985 196.711075,182.948456 196.474915,184.583267 
	C195.945221,188.250107 197.773712,189.529236 200.601929,190.155106 
	C204.493713,191.016327 208.470886,191.491119 212.363739,192.348221 
	C216.373199,193.230988 218.191284,195.532471 217.465714,199.961090 
	C216.906235,203.375992 216.876129,206.960175 217.187134,210.417221 
	C217.758850,216.771973 219.821945,222.007416 227.391830,223.140961 
	C230.062317,223.540878 232.415421,225.736847 235.085587,226.541489 
	C238.676376,227.623550 242.489090,228.956329 246.105423,228.708130 
	C250.307358,228.419724 251.874878,230.144150 251.655838,233.561935 
	C251.220810,240.350647 250.195572,247.099548 249.549866,253.877838 
	C249.329239,256.193726 249.514847,258.548309 249.514847,261.155365 
	C254.047821,259.404785 257.626373,257.532196 261.434418,256.647003 
	C271.618988,254.279617 277.719788,260.244385 275.887878,270.486084 
	C275.479462,272.769562 274.816925,275.018677 274.125702,277.238220 
	C272.546265,282.309662 273.136505,286.947754 275.911987,291.581726 
	C277.404449,294.073578 278.596710,297.108795 278.758179,299.964783 
	C279.206543,307.893372 283.193451,313.151123 290.154327,316.119080 
	C295.309448,318.317108 297.950195,321.833679 298.587189,327.316101 
	C299.201324,332.601898 300.245148,337.836304 301.006836,343.106781 
	C301.997284,349.960114 303.901367,356.401459 308.495270,361.827728 
	C314.354980,368.749115 315.125397,376.851715 313.602692,385.381927 
	C312.814331,389.798370 311.519806,394.143616 311.005432,398.584869 
	C310.395660,403.850159 313.295288,406.061157 318.354340,404.239075 
	C321.277771,403.186188 324.128265,401.641571 326.652039,399.820038 
	C335.929718,393.123688 345.335449,386.555817 354.143738,379.275085 
	C360.090546,374.359650 365.731323,368.792938 370.359619,362.651398 
	C374.126221,357.653290 378.105438,354.107697 384.293762,353.351227 
	C399.578796,351.482910 410.730927,342.354828 421.397552,332.350769 
	C426.374237,327.683197 431.057892,322.646301 436.388031,318.425537 
	C444.922180,311.667664 450.776703,303.259369 453.939606,292.949310 
	C458.174500,279.144867 462.156891,265.262360 466.457153,251.478745 
	C469.872742,240.530777 473.045135,229.378250 482.651184,221.768478 
	C483.895599,220.782654 485.088837,219.732269 486.305756,218.711792 
	C486.885773,218.843521 487.465759,218.975235 488.045746,219.106964 
	C488.045746,225.024139 487.972565,230.942917 488.100433,236.857330 
	C488.130096,238.228470 488.845856,239.584763 489.245911,240.947891 
	C490.571289,240.165085 492.321472,239.693375 493.157349,238.552063 
	C503.257538,224.760651 510.504272,209.833496 511.017883,192.311050 
	C511.071167,190.492706 511.803467,188.673630 511.729004,186.875259 
	C510.482971,156.783890 516.662537,127.151260 517.211426,97.181122 
	C517.385315,87.688774 516.897278,78.185303 516.997681,68.689941 
	C517.024597,66.146812 517.642700,63.363480 518.846008,61.157719 
	C519.798218,59.412128 522.491943,56.973511 523.652588,57.328259 
	C526.034546,58.056313 529.171326,60.101906 529.757629,62.223972 
	C531.695068,69.235870 532.747620,76.504745 533.935120,83.708740 
	C536.249390,97.749107 536.439880,111.838753 535.279968,126.031876 
	C534.768555,132.289200 535.547729,138.659988 535.877563,144.972107 
	C535.953613,146.427567 536.196289,148.175583 537.053467,149.223679 
	C538.637024,151.159912 540.585754,153.721878 542.663818,154.012802 
	C544.112305,154.215607 546.836670,151.374985 547.608032,149.363480 
	C552.738770,135.983643 557.215027,122.327751 557.912354,107.897087 
	C559.118103,82.949089 559.818726,57.977001 560.897095,33.022186 
	C561.067871,29.070015 561.984375,25.130251 562.783875,21.231478 
	C563.396912,18.242069 565.108459,15.432825 568.427917,16.236435 
	C570.221985,16.670778 572.463379,19.224010 572.790039,21.116940 
	C575.107422,34.545029 577.435303,48.000942 578.887634,61.541542 
	C580.937927,80.657402 580.215027,99.782005 577.292969,118.821320 
	C576.785522,122.127937 577.221069,125.579300 577.221069,128.963806 
	C577.709351,129.147736 578.197693,129.331680 578.685974,129.515625 
	C580.324646,127.197746 582.519775,125.095016 583.512451,122.527397 
	C590.391602,104.734116 597.959900,87.279892 601.467834,68.212257 
	C604.151550,53.624638 608.218079,39.041256 615.902405,25.970606 
	C617.063782,23.995293 619.224548,22.607573 620.923035,20.948071 
	C622.666016,23.018408 625.266174,24.841576 625.951111,27.217001 
	C626.979736,30.784378 627.596008,34.957645 626.764771,38.491573 
	C622.772156,55.464737 618.457275,72.371445 613.799622,89.174988 
	C611.324524,98.104355 607.919556,106.775940 604.822754,115.892181 
	C609.840088,117.095970 614.252319,116.667107 616.851562,112.252953 
	C621.887695,103.700394 626.392883,94.836807 631.285034,86.196671 
	C632.656738,83.774063 634.401672,81.474571 636.356750,79.495285 
	C638.324768,77.502861 640.199036,77.612030 641.895813,80.438789 
	C644.138855,84.175598 644.757324,87.810814 642.883240,91.778122 
	C639.052917,99.886604 635.151001,107.962158 631.421204,116.116493 
	C630.707581,117.676704 630.649719,119.536858 630.289246,121.258606 
	C631.998535,121.552856 633.699463,122.031860 635.418579,122.109642 
	C643.183594,122.461014 646.186890,117.067238 649.119019,111.121521 
	C650.473755,108.374535 652.862854,105.861473 655.356812,104.019394 
	C658.807739,101.470520 662.728516,99.510078 666.595642,97.595810 
	C668.153809,96.824493 670.102356,96.842010 671.873230,96.500549 
	C672.259399,99.120850 673.811523,102.372833 672.801636,104.236786 
	C670.298401,108.857246 666.799438,112.990868 663.380859,117.050911 
	C657.809631,123.667542 659.201111,128.543671 667.735352,130.635147 
	C671.403870,131.534195 675.229858,131.790527 679.981445,132.484497 
	C678.397766,137.578979 676.864197,142.243057 675.515198,146.959946 
	C674.791931,149.488937 673.844910,152.133804 673.962708,154.681778 
	C674.144592,158.612152 676.175537,161.400665 681.198120,160.995148 
	C679.367249,167.357895 676.406799,172.567245 671.777466,177.212967 
	C668.125732,180.877686 665.153870,185.412277 662.670166,189.989304 
	C660.576416,193.847870 662.212891,195.829926 666.655273,195.984818 
	C668.904358,196.063217 671.158447,195.998520 675.099976,195.998520 
	C672.840210,199.475952 671.508301,201.608002 670.094177,203.684082 
	C667.330688,207.741165 668.206787,210.169846 672.848328,211.180649 
	C682.168274,213.210281 682.193848,213.213669 680.946411,222.651123 
	C680.058167,229.370605 680.446716,235.815262 683.295349,242.180954 
	C686.249390,248.782272 683.556091,255.515427 677.186340,259.000397 
	C675.292053,260.036774 673.341614,260.971893 671.405151,261.929474 
	C665.819702,264.691498 664.532715,271.010956 669.966736,273.423798 
	C679.049133,277.456543 675.482788,282.513367 674.050659,288.949524 
	C670.490662,304.949219 664.257324,319.683136 655.138794,333.114044 
	C651.571289,338.368652 646.770264,342.957306 641.904053,347.115509 
	C635.741882,352.381134 635.539490,359.810791 642.318481,363.928436 
	C645.801270,366.043915 646.449646,369.184723 645.649536,372.543823 
	C644.655151,376.718170 643.096069,380.771790 641.597717,384.809601 
	C637.499329,395.853790 633.315674,406.866364 629.138428,417.881073 
	C628.435364,419.734772 628.007568,421.905884 626.754150,423.304138 
	C616.789246,434.420502 607.854248,446.577637 594.390686,454.139771 
	C591.251282,455.903107 588.566772,459.173370 586.686462,462.350159 
	C581.182922,471.648499 573.315918,475.492554 562.623718,475.302765 
	C555.240234,475.171692 547.645386,475.507416 540.489502,477.142303 
	C533.038147,478.844696 526.105042,482.236206 523.638489,490.986816 
	C523.199341,492.544769 519.379089,494.097076 517.187561,494.007172 
	C513.198425,493.843536 510.535736,494.548004 507.775208,497.871246 
	C500.196014,506.995483 490.784241,509.091949 479.668427,505.015503 
	C472.633087,502.435516 471.155548,503.176697 468.907288,510.413544 
	C466.005981,519.752502 463.372650,520.716492 455.937134,514.317688 
	C451.673431,510.648438 448.220001,506.053101 444.235199,502.040131 
	C439.897308,497.671570 436.263977,497.933533 434.462799,503.652893 
	C431.637329,512.624878 429.707489,521.925171 428.116730,531.209473 
	C427.680511,533.755676 429.113892,537.320374 430.877228,539.420166 
	C437.299530,547.068054 444.288422,554.003723 453.740753,558.305176 
	C460.609039,561.430664 466.691650,566.238159 473.314575,569.957336 
	C484.151733,576.043152 495.129852,581.879028 506.073700,587.773560 
	C518.073669,594.236938 530.109558,600.633545 542.115234,607.086304 
	C549.059021,610.818420 554.218567,616.140747 557.772095,623.312256 
	C559.886658,627.579834 563.149658,631.274353 565.857605,635.252930 
	C571.226562,643.141235 569.109558,648.371826 559.697266,650.119202 
	C556.314331,650.747314 554.647461,652.247864 555.126282,655.836304 
	C556.116821,663.260986 553.552002,669.964722 550.532593,676.485046 
	C549.739197,678.198364 548.345886,680.152527 546.726685,680.879883 
	C536.966614,685.264282 527.058533,688.837830 515.918152,686.649536 
	C513.632324,686.200500 510.356964,687.507874 508.454742,689.100769 
	C504.961487,692.025696 502.136932,692.305481 498.982361,689.032471 
	C498.406708,688.435120 497.808655,687.768738 497.083252,687.423706 
	C494.974609,686.420898 492.227509,684.312256 490.787323,684.965759 
	C488.944824,685.801819 488.350311,689.086060 486.811096,690.985596 
	C485.522827,692.575500 483.795868,694.526428 482.004730,694.839722 
	C478.527924,695.447693 474.869629,695.017639 470.182953,695.017639 
	C469.804749,697.533020 469.282562,701.006042 468.693848,704.921448 
	C462.998199,703.981873 459.085266,700.544006 455.945831,695.940308 
	C451.087860,688.816467 448.612091,688.768921 443.325897,695.881042 
	C441.844757,697.873901 440.450806,700.003235 439.441467,702.259827 
	C437.471100,706.664978 434.486298,707.202087 430.567108,705.102112 
	C427.639191,703.533325 424.383728,702.338501 421.890625,700.243469 
	C416.109589,695.385437 409.664612,694.260864 402.375702,694.884216 
	C392.664703,695.714722 390.647308,694.355347 388.635864,684.837097 
	C387.761993,680.701904 385.889038,679.766846 382.279114,679.814087 
	C374.708282,679.913208 366.948822,678.303101 359.431396,683.276184 
	C355.061890,676.625122 350.859650,670.269104 346.703186,663.883301 
	C344.889618,661.096985 343.308228,658.150574 341.376404,655.452271 
	C338.172028,650.976501 335.492523,651.124878 333.878235,656.484863 
	C331.783325,663.440674 330.445618,670.666321 329.314301,677.859558 
	C328.000885,686.210815 326.016541,688.997192 317.404144,689.616638 
	C306.122955,690.427917 294.782257,690.415588 283.466705,690.741760 
	C281.824615,690.789124 280.179993,690.748291 278.284882,690.748291 
	C277.533020,696.677002 276.801300,702.577698 276.031799,708.473511 
	C275.429626,713.086975 273.199066,714.884827 268.213531,714.255371 
	C257.012787,712.841064 252.169540,716.085266 249.091675,726.987488 
	C246.354858,736.681641 238.505188,738.179504 229.046494,740.263123 
	C239.236282,731.399963 241.104446,719.984619 244.594147,708.637573 
	C244.738876,707.803955 244.689117,707.558960 244.639374,707.314026 
	C244.340561,707.457214 244.041763,707.600403 243.742950,707.743591 
z"/>
<path fill="#000000" opacity="1.000000" stroke="none" 
	d="
M243.927338,707.925903 
	C244.041763,707.600403 244.340561,707.457214 244.639374,707.314026 
	C244.689117,707.558960 244.738876,707.803955 244.638641,708.256714 
	C244.363007,708.345703 244.237366,708.226929 243.927338,707.925903 
z"/>
</svg>