<?xml version="1.0" standalone="no"?>
<!DOCTYPE svg PUBLIC "-//W3C//DTD SVG 20010904//EN"
 "http://www.w3.org/TR/2001/REC-SVG-20010904/DTD/svg10.dtd">
<svg version="1.0" xmlns="http://www.w3.org/2000/svg"
 width="1366.000000pt" height="768.000000pt" viewBox="0 0 1366.000000 768.000000"
 preserveAspectRatio="xMidYMid meet">

<g transform="translate(0.000000,768.000000) scale(0.100000,-0.100000)"
fill="#000000" stroke="none">
<path d="M0 3840 l0 -3840 6830 0 6830 0 0 3840 0 3840 -6830 0 -6830 0 0
-3840z m1190 3205 c1043 -932 2334 -1555 4125 -1992 193 -47 360 -90 372 -96
31 -14 55 -53 56 -91 0 -17 -16 -65 -39 -110 -34 -71 -39 -89 -40 -155 -1 -64
-5 -82 -27 -114 -76 -112 -57 -240 56 -363 102 -112 183 -131 247 -58 25 29
30 43 30 87 0 118 118 197 275 185 184 -15 309 -157 358 -406 16 -79 23 -100
28 -82 11 41 10 215 -2 272 -47 222 -220 336 -457 299 -112 -17 -176 -57 -239
-148 -28 -41 -37 -66 -42 -114 l-6 -61 -48 42 c-56 50 -97 124 -97 177 0 40
25 90 68 135 23 25 33 28 91 28 48 0 82 7 126 26 33 15 89 33 123 40 77 18
128 42 165 82 24 25 27 35 22 64 -9 48 14 65 137 98 148 39 346 62 505 58 73
-2 129 0 125 4 -12 11 -162 46 -252 59 -160 22 -351 -12 -516 -91 -106 -52
-180 -111 -212 -170 -20 -39 -55 -59 -151 -90 -78 -25 -146 -27 -155 -4 -13
34 -5 74 29 141 43 85 130 183 235 262 151 113 257 145 480 144 128 -1 207
-15 380 -69 178 -56 221 -81 638 -370 51 -35 97 -64 102 -64 6 0 10 19 10 43
0 91 45 169 121 208 22 11 149 42 283 69 978 199 1668 396 2346 673 879 358
1659 835 2287 1400 372 335 468 418 471 408 5 -15 -54 -229 -105 -381 -141
-417 -343 -778 -626 -1118 -437 -527 -1115 -974 -2011 -1328 -61 -24 -104 -44
-95 -44 32 0 579 80 704 104 266 50 796 179 1174 285 80 22 146 39 149 37 7
-7 -251 -260 -383 -375 -669 -584 -1489 -948 -2365 -1047 -80 -9 -152 -18
-160 -21 -16 -6 45 -24 520 -154 162 -45 296 -83 298 -84 6 -6 -165 -67 -278
-99 -350 -102 -660 -143 -1165 -154 l-290 -7 258 -114 c233 -102 257 -115 257
-137 0 -13 -6 -24 -12 -24 -7 0 -213 -11 -458 -25 -245 -14 -479 -25 -520 -26
-138 -2 -138 -3 -6 -103 76 -58 116 -95 114 -105 -3 -14 -34 -16 -261 -19
-141 -1 -257 -5 -257 -8 0 -3 22 -59 49 -125 28 -65 48 -119 47 -119 -2 0 -48
16 -101 35 -54 20 -100 33 -104 29 -3 -3 -6 -76 -6 -162 0 -134 3 -169 23
-237 52 -180 132 -314 402 -670 94 -125 170 -229 167 -231 -2 -2 -111 14 -243
36 -131 22 -247 40 -256 40 -17 0 -18 -21 -18 -306 l0 -306 -32 7 c-18 4 -65
22 -105 41 -91 43 -175 132 -235 250 -24 46 -45 84 -48 84 -3 0 -23 -57 -43
-128 -138 -464 -138 -464 -166 -457 -14 4 -34 14 -45 23 -32 30 -94 145 -120
225 -25 76 -53 248 -58 357 l-3 55 -58 -116 c-76 -155 -154 -241 -269 -299
-129 -64 -118 -89 -118 265 l0 305 -22 0 c-13 0 -124 -18 -248 -40 -123 -22
-233 -40 -242 -40 -46 0 -28 32 73 138 282 292 432 548 494 842 21 96 32 330
17 330 -6 0 -55 -16 -108 -35 -53 -19 -98 -34 -100 -32 -1 1 20 54 47 117 27
62 49 117 49 122 0 4 -124 8 -275 8 -151 0 -275 4 -275 9 0 4 59 53 131 107
l131 99 -38 7 c-22 4 -199 14 -394 23 -476 22 -712 35 -722 41 -24 15 -3 25
318 164 278 120 279 109 -3 110 -371 0 -736 36 -1014 100 -133 30 -364 100
-439 132 -42 19 -44 21 -22 29 19 7 535 151 742 206 79 21 94 32 44 33 -141 1
-580 80 -835 150 -596 163 -1158 463 -1638 874 -120 103 -399 372 -391 379 3
2 124 -22 270 -53 146 -32 427 -92 625 -134 198 -43 536 -115 750 -162 215
-46 400 -84 412 -84 28 0 39 18 22 34 -8 7 -81 39 -164 71 -856 329 -1402 659
-1857 1121 -477 484 -760 1018 -904 1703 -4 17 36 -16 143 -119 81 -79 204
-193 273 -255z"/>
</g>
</svg>
