<svg version="1.1" id="Layer_1" xmlns="http://www.w3.org/2000/svg" xmlns:xlink="http://www.w3.org/1999/xlink" x="0px" y="0px"
	 width="100%" viewBox="0 0 865 768" enable-background="new 0 0 865 768" xml:space="preserve">
<path fill="#fff" opacity="0.000000" stroke="none" 
	d="
M481.000000,769.000000 
	C322.166718,769.000000 163.833420,768.984497 5.500206,769.093872 
	C1.751107,769.096436 0.905113,768.249573 0.906640,764.500061 
	C1.009685,511.500214 1.009685,258.500275 0.906730,5.500409 
	C0.905205,1.752116 1.749569,0.905367 5.499660,0.906706 
	C290.832886,1.008606 576.166138,1.008584 861.499329,0.906887 
	C865.247009,0.905552 866.095032,1.748667 866.093506,5.499407 
	C865.990356,258.499298 865.990295,511.499207 866.093201,764.499084 
	C866.094727,768.246216 865.252502,769.097839 861.500793,769.094421 
	C734.833923,768.980652 608.166931,769.000000 481.000000,769.000000 
z"/>
<path fill="#fff" opacity="1.000000" stroke="none" 
	d="
M427.167236,568.558838 
	C411.984009,555.163940 396.945129,541.520081 381.513855,527.520203 
	C380.356812,534.044006 379.273712,540.288086 378.138641,546.522705 
	C375.683319,560.008606 371.197845,572.872070 365.615936,585.322449 
	C356.078278,606.596130 333.028961,619.200256 310.191284,615.566284 
	C319.887421,606.084595 328.782471,596.321045 336.868927,585.828064 
	C351.698547,566.585205 362.997589,545.404480 372.025604,522.924011 
	C372.970490,520.571167 372.987427,518.981689 370.856598,517.392273 
	C369.140533,516.112244 367.669189,514.504089 365.652893,512.637573 
	C364.976227,514.208679 364.398621,515.450623 363.899536,516.723389 
	C357.063843,534.155701 348.485596,550.634827 336.563904,565.162720 
	C324.822357,579.470886 309.436462,586.055969 290.998291,585.863770 
	C280.437958,585.753662 269.875519,585.843872 258.310974,585.843872 
	C260.936768,582.628784 263.776978,581.635376 266.224152,580.214966 
	C292.617188,564.895508 316.679108,546.729492 336.408203,523.210449 
	C341.764191,516.825500 346.546234,510.028015 351.195496,503.123199 
	C352.317993,501.456085 352.435486,500.308167 350.787903,498.904297 
	C327.660400,479.197601 325.162354,453.747833 330.353607,426.025024 
	C335.365326,399.260956 345.888489,374.597382 358.398193,350.649811 
	C360.398651,346.820251 362.441101,343.012573 364.587463,338.860413 
	C364.710815,338.526001 364.329102,338.377289 364.215820,338.210693 
	C364.102570,338.044067 364.442993,337.856995 364.364868,337.675659 
	C364.286743,337.494293 364.046448,337.819489 363.858276,337.745544 
	C346.982544,353.145386 334.165436,371.378998 324.946198,392.152313 
	C310.803345,424.019745 309.413330,457.125854 315.477722,490.937225 
	C316.061859,494.194000 316.689392,497.442993 317.431732,501.418335 
	C314.533325,499.612213 313.333405,497.220337 311.745819,495.251862 
	C296.907898,476.854156 282.304810,458.273438 268.608948,439.000275 
	C255.027237,419.887695 256.445892,403.212646 272.696472,386.100983 
	C289.233337,368.687927 309.044891,356.117737 330.645630,346.093933 
	C338.026306,342.668915 345.423889,339.280304 353.062805,335.628784 
	C353.539001,335.125122 353.579590,334.929901 353.433411,334.797180 
	C353.322510,334.696503 353.200958,334.646362 352.798096,334.547791 
	C319.780518,344.401428 287.115479,354.611084 254.685883,365.558990 
	C245.805481,368.556915 236.969696,371.231445 227.354675,369.253052 
	C221.480606,368.044434 216.090332,365.791351 211.719482,361.924988 
	C190.629913,343.269562 169.021652,325.225861 147.571732,306.994934 
	C147.096649,306.591187 146.778748,306.002472 145.986755,304.985352 
	C212.437531,315.029297 278.490234,323.123169 345.443176,326.680634 
	C347.900208,325.287933 350.036865,326.646667 352.118835,326.496582 
	C350.212830,326.358551 348.320038,326.165192 346.237122,325.278656 
	C311.740326,319.039093 277.532349,312.920258 243.286392,307.022095 
	C217.396332,302.563080 191.339828,298.982910 165.577545,293.896576 
	C144.548935,289.744812 128.000793,278.065369 117.335442,259.114105 
	C102.014427,231.890182 86.972496,204.509186 71.825569,177.187408 
	C70.556267,174.897842 69.379417,172.553833 69.008049,169.014038 
	C159.272446,224.550629 252.282959,273.394135 348.311920,317.272705 
	C349.053864,317.327271 349.436798,317.362549 350.076172,317.524902 
	C350.480682,317.675629 350.621246,317.769989 350.981079,317.958954 
	C351.200409,318.053528 351.081238,318.493744 351.191895,318.280884 
	C351.137543,318.013733 350.972534,317.959412 350.585205,317.740234 
	C349.970947,317.484741 349.657166,317.271149 349.514221,316.677521 
	C305.347656,290.975037 261.097321,265.510803 216.782532,240.159286 
	C179.251175,218.688416 141.793610,197.081604 104.023285,176.037674 
	C75.955376,160.399490 55.785664,138.492599 44.999462,107.907028 
	C34.384262,77.806358 23.526976,47.808811 16.369999,16.635466 
	C16.191500,15.857985 16.160070,15.046738 16.045189,14.133058 
	C18.664124,14.195915 19.695095,16.066338 20.772680,17.615307 
	C64.773956,80.864609 122.029930,129.276001 188.144669,167.971817 
	C228.331985,191.492767 267.922241,216.047226 308.749054,238.458771 
	C337.392303,254.182220 354.769012,278.531219 364.939697,308.814270 
	C366.737885,314.168243 368.559967,319.517212 370.193848,324.922028 
	C370.985138,327.539734 372.159698,328.068024 374.836945,327.270935 
	C392.660950,321.964111 402.735382,309.381805 407.814331,292.229889 
	C409.811005,285.487061 410.222717,278.553375 409.165894,271.466400 
	C406.669861,254.727524 393.576080,245.089035 376.884399,248.553574 
	C372.318665,249.501251 371.681366,248.006500 372.111481,244.248672 
	C372.804657,238.192535 375.481903,233.558548 381.185822,230.905640 
	C384.703522,229.269547 388.402161,228.239212 392.232605,228.074356 
	C397.531921,227.846298 402.085388,226.518112 406.404816,223.013870 
	C412.434296,218.122299 419.905762,216.403061 427.571045,217.380127 
	C439.717804,218.928391 451.406677,222.246460 461.567749,229.415543 
	C474.880981,238.808655 481.976013,251.538086 481.103668,268.116364 
	C480.345062,282.534241 480.617493,296.756592 486.943329,310.188477 
	C489.773743,316.198364 492.882141,322.007172 497.548309,327.621124 
	C500.132843,320.107483 502.404694,313.076599 504.963318,306.151672 
	C510.690704,290.650421 517.443359,275.681458 528.175598,262.845673 
	C534.023621,255.851379 541.158569,250.448868 548.950745,245.856308 
	C590.214783,221.535995 631.435303,197.141083 672.775024,172.949997 
	C722.621521,143.780914 768.797363,109.955208 808.159241,67.356812 
	C821.970703,52.409668 834.723389,36.623089 846.511169,20.035130 
	C848.308960,17.505304 849.952576,12.452975 853.046570,13.884611 
	C855.983276,15.243452 852.853394,19.521830 851.990234,22.337259 
	C843.078979,51.404636 834.801392,80.689911 824.020081,109.141701 
	C813.085999,137.996719 793.625122,159.886963 766.805420,174.731232 
	C696.235596,213.790466 626.212280,253.804550 556.343689,294.094910 
	C545.540283,300.324768 534.863953,306.774963 523.916565,313.389893 
	C523.704285,313.656525 523.679382,314.058868 523.514282,314.176208 
	C523.349182,314.293579 523.667053,314.522797 523.780640,314.356384 
	C523.894165,314.190002 524.276367,314.329102 524.391357,314.496826 
	C575.680969,291.907684 625.764709,266.927948 675.232239,240.692657 
	C716.206360,218.961899 756.536682,196.106262 795.937073,171.625031 
	C797.060913,170.926712 798.221680,170.287811 799.648254,169.456253 
	C800.170532,172.159241 798.681519,174.004440 797.633179,175.882309 
	C782.164429,203.592529 766.436157,231.160339 751.217102,259.006592 
	C739.771606,279.948456 721.820068,291.098114 698.958313,294.923523 
	C645.158875,303.925629 591.262268,312.348999 537.594788,322.133759 
	C532.687500,323.028442 527.806396,324.066284 522.507507,325.072815 
	C519.986694,326.227295 517.752686,326.556274 514.802307,326.238678 
	C517.378113,326.874878 519.338257,325.604370 521.648010,326.113831 
	C555.164673,325.453766 588.143311,322.128296 621.095825,318.497803 
	C653.535583,314.923798 685.806702,310.108704 718.065796,305.208252 
	C719.293762,305.021698 720.605713,304.517334 721.954651,305.327820 
	C721.519958,307.533081 719.613342,308.455780 718.167908,309.691681 
	C698.796326,326.256134 678.953918,342.260986 660.006348,359.333588 
	C647.969971,370.178833 633.975586,372.926025 618.706970,366.931610 
	C585.854492,354.033813 551.871887,344.674408 518.123596,334.574768 
	C516.872681,334.200378 515.669922,333.555054 513.682373,334.647430 
	C522.344727,338.619232 530.649841,342.291016 538.837708,346.207764 
	C561.090088,356.852295 581.637512,369.980530 598.217102,388.534882 
	C611.503357,403.403625 612.994873,419.919952 601.975586,436.597382 
	C587.182434,458.986481 569.881165,479.521332 553.218750,500.517029 
	C553.051697,500.727539 552.678528,500.774475 551.675049,501.221100 
	C558.034912,470.530640 559.000122,440.233093 550.449402,410.207916 
	C541.856567,380.034760 525.755981,354.453278 502.381195,332.948822 
	C501.572144,335.881226 503.506714,337.537170 504.521759,339.374542 
	C519.296509,366.117859 531.560913,393.872772 538.224609,423.829498 
	C544.042725,449.984650 540.094238,474.149353 522.508667,495.143951 
	C519.970825,498.173767 522.385864,499.747498 523.514282,501.558258 
	C537.609375,524.177124 555.854370,542.947266 577.045837,558.973389 
	C588.219055,567.423218 600.180115,574.643005 612.172668,581.826477 
	C613.659241,582.716919 615.570374,583.144226 616.352722,584.976624 
	C616.065125,585.265686 615.848633,585.675171 615.628723,585.677002 
	C602.977600,585.784119 590.316040,586.327637 577.678772,585.494080 
	C558.355591,584.219543 544.543945,573.839783 533.828125,558.490234 
	C523.966736,544.364441 516.137817,529.196167 510.351166,512.970581 
	C509.908722,511.729858 509.385406,510.517944 508.899353,509.291779 
	C508.436829,509.442780 508.087494,509.462769 507.868530,509.641968 
	C500.737457,515.478271 500.707977,515.492859 504.072418,524.034607 
	C517.429565,557.946411 536.679993,587.966858 563.112427,613.220032 
	C563.791443,613.868713 564.859375,614.110352 565.386108,614.899292 
	C543.275146,618.772339 520.592773,607.425598 510.914490,587.134033 
	C501.504822,567.405579 496.206146,546.550964 494.165710,524.830750 
	C494.092377,524.050293 494.000183,523.271729 493.812866,521.521057 
	C476.453766,537.457275 459.656555,552.877625 442.859344,568.297974 
	C442.501770,568.099915 442.144165,567.901855 441.786591,567.703796 
	C481.234833,495.520111 498.247681,418.090210 495.965515,336.099335 
	C475.880981,402.107513 455.796478,468.115692 435.330566,535.377380 
	C412.108185,468.890930 393.669189,402.138641 372.643127,335.776581 
	C369.681305,392.381470 379.943542,482.560242 427.582123,567.688904 
	C427.636597,568.105957 427.474091,568.207886 427.167236,568.558838 
z"/>
<path fill="#fff" opacity="1.000000" stroke="none" 
	d="
M476.794830,544.609131 
	C478.174530,546.350586 476.408356,548.060791 475.712189,549.750183 
	C472.931152,556.498840 469.598877,563.038513 468.097290,570.254089 
	C465.210236,584.126953 468.965485,596.457947 476.509613,608.103577 
	C497.355286,640.282532 525.806824,664.048767 558.631714,683.082458 
	C562.018921,685.046631 565.694641,686.643860 568.606323,689.485229 
	C568.169922,689.828918 567.907776,690.214172 567.658752,690.205872 
	C553.204468,689.721313 538.682922,691.478149 524.297424,689.564087 
	C510.851837,687.775208 499.878174,680.845398 491.426270,670.474487 
	C473.585114,648.582458 461.738831,623.542480 456.127106,595.987122 
	C451.872284,575.094360 460.988586,558.455750 476.595367,544.554810 
	C476.760773,544.470459 476.853241,544.739197 476.794830,544.609131 
z"/>
<path fill="#fff" opacity="1.000000" stroke="none" 
	d="
M391.909912,545.529419 
	C408.654053,557.174561 416.985291,579.959961 412.006012,599.675110 
	C405.279785,626.307434 394.014679,650.714722 376.184845,671.822266 
	C367.492859,682.112122 357.047821,688.832458 342.923401,689.459290 
	C328.767883,690.087402 314.642639,689.835938 298.846741,689.827942 
	C302.803650,687.451599 305.497833,685.755310 308.263275,684.184692 
	C339.911682,666.210266 367.695221,643.828308 388.654724,613.676697 
	C394.472107,605.307983 399.476257,596.603760 401.146881,586.267212 
	C402.755249,576.315918 400.365540,567.132751 396.707703,558.088074 
	C395.089691,554.087341 393.410431,550.111267 391.909912,545.529419 
z"/>
<path fill="#fff" opacity="1.000000" stroke="none" 
	d="
M436.348572,754.612427 
	C434.034851,758.255859 433.243561,755.018677 432.506012,754.005249 
	C422.792633,740.657043 417.984314,725.669739 418.676300,709.184753 
	C419.349091,693.156616 424.414124,677.870300 427.449738,662.240723 
	C429.062988,653.934631 431.111176,645.713257 432.939392,637.448364 
	C433.189728,636.316589 433.201111,635.106140 434.401154,634.425964 
	C435.930939,634.646362 435.851715,635.915710 436.085968,637.011414 
	C440.354767,656.979248 444.801025,676.910889 448.861847,696.920837 
	C453.090363,717.757141 448.089661,736.762817 436.348572,754.612427 
z"/>
<path fill="#fff" opacity="1.000000" stroke="none" 
	d="
M357.810059,713.811279 
	C381.714447,691.750183 396.750519,664.350098 409.016052,635.130432 
	C412.871521,625.945740 416.961548,616.859375 420.962891,607.736267 
	C421.532257,606.438110 422.207886,605.186707 423.236481,604.016602 
	C424.359192,616.004150 423.430664,627.840698 421.731171,639.605164 
	C419.246735,656.803040 414.392029,673.351624 407.109467,689.144592 
	C398.268066,708.317749 383.229279,718.857971 362.250336,720.884827 
	C358.947540,721.204041 355.586731,721.239197 351.602478,719.545105 
	C353.751160,717.566650 355.655243,715.813416 357.810059,713.811279 
z"/>
<path fill="#fff" opacity="1.000000" stroke="none" 
	d="
M476.693848,670.258423 
	C488.121979,688.711182 501.532928,705.106873 517.859497,720.615540 
	C500.360809,721.984314 485.902252,718.007019 473.699493,706.695435 
	C466.282898,699.820496 462.143555,691.035828 458.469360,681.837524 
	C448.420380,656.680176 443.450409,624.928101 446.349274,600.481262 
	C453.851440,625.531677 463.456879,648.503967 476.693848,670.258423 
z"/>
<path fill="#fff" opacity="1.000000" stroke="none" 
	d="
M346.007385,325.333435 
	C348.505402,325.450775 351.046204,325.838470 354.569763,326.376129 
	C351.255615,327.435425 348.961243,327.062531 346.268433,326.823395 
	C345.921265,326.317902 345.985687,325.960815 346.007385,325.333435 
z"/>
<path fill="#fff" opacity="1.000000" stroke="none" 
	d="
M522.009521,325.894165 
	C519.699036,327.743896 517.217773,326.966553 514.666321,326.378387 
	C516.880493,325.899292 519.094604,325.420197 521.705322,325.024536 
	C522.079407,325.282440 522.056824,325.456940 522.009521,325.894165 
z"/>
<path fill="#fff" opacity="1.000000" stroke="none" 
	d="
M551.477783,502.427856 
	C551.441223,502.450897 551.514404,502.404816 551.477783,502.427856 
z"/>
<path fill="#fff" opacity="1.000000" stroke="none" 
	d="
M427.940369,568.796997 
	C428.657349,569.238403 429.301575,569.755493 427.807495,569.564148 
	C427.638885,569.208496 427.639984,569.008789 427.940369,568.796997 
z"/>
<path fill="#fff" opacity="1.000000" stroke="none" 
	d="
M427.786926,569.251038 
	C427.395660,569.418213 427.197235,569.329956 427.032715,568.975586 
	C427.147980,568.669678 427.273102,568.531616 427.598633,568.198730 
	C428.069672,568.028442 428.216064,568.176025 428.238953,568.615784 
	C428.239624,568.784851 427.936096,569.093933 427.786926,569.251038 
z"/>
<path fill="#fff" opacity="1.000000" stroke="none" 
	d="
M476.679321,544.248291 
	C476.764496,544.335815 476.860657,544.469971 476.959137,544.602478 
	C476.959778,544.603333 476.992737,544.580139 476.827271,544.389282 
	C476.643951,544.210327 476.690338,544.294861 476.679321,544.248291 
z"/>
<path fill="#fff" opacity="1.000000" stroke="none" 
	d="
M391.728577,545.287720 
	C391.496429,545.044067 391.375275,544.682983 391.254089,544.321899 
	C391.485168,544.344666 391.716217,544.367432 392.004089,544.662476 
	C392.060883,544.934753 391.839569,545.170227 391.728577,545.287720 
z"/>
<path fill="#232309" opacity="1.000000" stroke="none" 
	d="
M417.378235,237.758362 
	C413.402161,237.053268 414.929230,234.319839 415.292145,232.651428 
	C415.662628,230.948273 417.546326,231.996429 418.693298,232.251999 
	C422.076508,233.005844 425.423767,233.923752 428.776855,234.808548 
	C429.805817,235.080063 431.598297,234.669189 431.463593,236.267975 
	C431.310699,238.083633 429.455017,237.513443 428.262970,237.559799 
	C424.790100,237.694916 421.312286,237.703796 417.378235,237.758362 
z"/>
<path fill="#33330D" opacity="1.000000" stroke="none" 
	d="
M523.231567,314.880096 
	C522.389099,315.950714 521.704041,316.568024 520.696411,315.685333 
	C521.220459,315.161621 521.744568,314.637878 522.635010,314.059204 
	C523.141418,314.195892 523.281555,314.387482 523.231567,314.880096 
z"/>
<path fill="#010100" opacity="1.000000" stroke="none" 
	d="
M352.722778,334.682953 
	C353.387421,334.052917 354.238098,333.418213 355.151733,334.343262 
	C354.777710,334.633453 354.403687,334.923645 353.670776,335.298157 
	C353.180756,335.227234 353.049591,335.071960 352.722778,334.682953 
z"/>
<path fill="#010100" opacity="1.000000" stroke="none" 
	d="
M349.384766,316.628357 
	C350.111084,316.623291 350.596283,316.856201 351.273743,317.278198 
	C351.539032,317.770020 351.612030,318.072815 351.221375,318.317749 
	C350.186707,318.108459 349.615662,317.957001 348.854858,317.575867 
	C348.824646,317.186279 348.984131,317.026306 349.384766,316.628357 
z"/>
<path fill="#010100" opacity="1.000000" stroke="none" 
	d="
M351.289001,317.665405 
	C352.024506,317.834564 352.582977,318.201935 353.400635,318.783661 
	C353.659851,318.998047 353.279968,319.309418 353.197205,319.540619 
	C352.482849,319.448944 351.851227,319.126068 350.988708,318.531555 
	C350.875854,318.127808 350.993896,317.995728 351.289001,317.665405 
z"/>
<path fill="#010100" opacity="1.000000" stroke="none" 
	d="
M523.303650,315.149353 
	C523.033264,314.985046 523.025085,314.788940 523.009155,314.298584 
	C523.001343,314.004272 523.299377,313.722229 523.501831,313.689392 
	C523.842529,313.820465 523.980835,313.984436 524.312744,314.406494 
	C524.192871,314.815582 523.879333,314.966614 523.303650,315.149353 
z"/>
<path fill="#33330D" opacity="1.000000" stroke="none" 
	d="
M519.254517,316.728943 
	C519.304504,316.463196 519.598328,316.433075 519.892151,316.403015 
	C519.760925,316.590179 519.629700,316.777344 519.254517,316.728943 
z"/>
<path fill="#fff" opacity="1.000000" stroke="none" 
	d="
M517.280029,317.709656 
	C517.285522,317.434784 517.503845,317.370331 517.722229,317.305908 
	C517.645813,317.510620 517.569397,317.715363 517.280029,317.709656 
z"/>
<path fill="#fff" opacity="1.000000" stroke="none" 
	d="
M515.420776,318.610657 
	C515.400879,318.385529 515.515259,318.241730 515.610596,318.253448 
	C515.705200,318.265045 515.780579,318.433258 515.864441,318.532715 
	C515.758545,318.608521 515.652649,318.684326 515.420776,318.610657 
z"/>
<path fill="#fff" opacity="1.000000" stroke="none" 
	d="
M365.561951,336.650024 
	C365.557220,337.286591 365.321228,337.644501 364.898041,338.264191 
	C364.535126,338.386322 364.359467,338.246613 363.926941,337.889282 
	C364.066010,337.211121 364.461914,336.750641 365.198364,335.983887 
	C365.469513,335.908875 365.400116,336.140076 365.561951,336.650024 
z"/>
<path fill="#fff" opacity="1.000000" stroke="none" 
	d="
M365.563660,335.998291 
	C366.562500,335.547791 366.192688,336.206970 365.955322,336.814026 
	C365.724884,336.725433 365.656616,336.522186 365.563660,335.998291 
z"/>
<path fill="#fff" opacity="1.000000" stroke="none" 
	d="
M366.584381,334.608826 
	C366.628876,334.698914 366.421234,334.725830 366.421234,334.725830 
	C366.421234,334.725830 366.539886,334.518738 366.584381,334.608826 
z"/>
<path fill="#fff" opacity="1.000000" stroke="none" 
	d="
M356.289124,333.333618 
	C356.577332,333.345062 356.641266,333.553680 356.705231,333.762299 
	C356.491760,333.685120 356.278320,333.607941 356.289124,333.333618 
z"/>
<path fill="#fff" opacity="1.000000" stroke="none" 
	d="
M355.286133,320.569946 
	C355.191620,320.467163 355.514465,320.409149 355.514465,320.409149 
	C355.514465,320.409149 355.380646,320.672760 355.286133,320.569946 
z"/>
<path fill="#fff" opacity="1.000000" stroke="none" 
	d="
M353.412781,319.113464 
	C353.892151,319.139557 354.124420,319.281097 354.356720,319.422607 
	C354.087585,319.648315 353.818420,319.874023 353.331879,319.935791 
	C353.131531,319.590820 353.148621,319.409851 353.412781,319.113464 
z"/>
</svg>