<svg version="1.1" id="Layer_1" xmlns="http://www.w3.org/2000/svg" xmlns:xlink="http://www.w3.org/1999/xlink" x="0px" y="0px"
	 width="100%" viewBox="0 0 795 768" enable-background="new 0 0 795 768" xml:space="preserve">
<path fill="#F7F73F" opacity="1.000000" stroke="none" 
	d="
M322.000000,0.999998 
	C374.020905,1.000000 426.041779,1.000000 478.222443,1.327330 
	C479.575958,2.122280 480.732056,2.760617 481.968811,3.033202 
	C574.622314,23.454699 650.392334,71.117561 708.652161,145.732483 
	C755.340149,205.527069 782.168640,273.595032 788.291260,349.504333 
	C793.309265,411.717743 783.466797,471.546326 759.382690,529.057312 
	C736.930481,582.671570 704.013489,628.877319 661.382996,668.396606 
	C619.661438,707.073364 571.654785,734.596313 517.396851,751.309448 
	C491.755463,759.207886 465.588501,764.718018 438.833252,767.255737 
	C438.172974,767.318359 437.608948,768.395874 437.000000,769.000000 
	C413.312439,769.000000 389.624878,769.000000 365.819031,768.663330 
	C364.846771,767.933960 364.025360,767.310242 363.133759,767.184631 
	C355.224823,766.070740 347.277313,765.210938 339.390167,763.965576 
	C298.373169,757.488831 259.148438,745.326111 222.127991,726.402222 
	C178.436646,704.068176 140.630829,674.002869 108.655228,636.987549 
	C30.022736,545.961731 -2.493386,440.871765 14.950073,321.310089 
	C23.879829,260.103394 47.377377,204.666626 84.033348,154.863266 
	C127.286118,96.097023 182.654343,52.635227 249.928024,24.425362 
	C272.361847,15.018196 295.657898,8.263414 319.409424,3.046486 
	C320.376160,2.834147 321.141052,1.703040 322.000000,0.999998 
M634.856873,477.118958 
	C634.282715,477.174408 633.708557,477.229889 633.134399,477.285309 
	C633.724915,477.558167 634.315369,477.831024 635.263794,478.714447 
	C640.663025,481.276062 646.172241,483.630981 651.442871,486.434418 
	C676.661987,499.848419 699.320190,517.072876 722.049927,534.180969 
	C723.958984,535.617859 725.793274,537.154114 727.858643,538.800781 
	C728.754272,537.431946 729.379395,536.663330 729.793762,535.794128 
	C730.268616,534.797852 730.556335,533.712402 731.164856,531.986389 
	C715.513672,521.134277 700.271667,509.817596 684.276123,499.691376 
	C669.112061,490.091614 652.899536,482.313965 634.856873,477.118958 
M247.248001,615.107788 
	C246.332611,616.286865 245.332062,617.409912 244.514420,618.653320 
	C229.660812,641.242065 224.539536,667.307678 218.150864,692.904114 
	C217.875732,694.006348 218.625916,696.026245 219.551514,696.650818 
	C223.376266,699.231506 227.452774,701.439087 232.237259,704.254944 
	C234.632095,673.568604 239.037170,644.043152 248.860199,615.023682 
	C248.796783,614.754883 248.733368,614.486145 248.669968,614.217346 
	C248.411850,614.442322 248.153732,614.667297 247.248001,615.107788 
M555.860779,580.950012 
	C560.154053,576.326660 564.005737,571.170654 568.822205,567.178406 
	C584.209412,554.424011 602.563354,549.568176 622.129028,549.067444 
	C649.903809,548.356628 675.503357,556.992188 700.441345,568.161438 
	C710.996399,572.888855 712.073120,572.375427 715.934875,561.175476 
	C715.986145,561.026733 715.941345,560.844910 715.941345,560.263611 
	C686.430603,546.235596 656.282959,534.971619 622.461975,536.675476 
	C591.001282,538.260376 568.027710,551.930237 554.001465,581.004700 
	C554.081604,581.264099 554.161743,581.523438 554.241943,581.782776 
	C554.584900,581.611816 554.927856,581.440857 555.860779,580.950012 
M252.051514,345.038788 
	C251.812271,345.100372 251.573044,345.161987 251.333817,345.223602 
	C251.528061,345.508484 251.722305,345.793365 252.066391,346.737549 
	C262.855957,357.127502 273.413330,367.773132 284.496613,377.839661 
	C297.062134,389.252441 305.279175,402.850891 307.535797,419.761200 
	C308.010254,423.316406 307.604828,426.989044 307.604828,430.607574 
	C307.146973,430.658569 306.689087,430.709534 306.231232,430.760529 
	C304.056519,412.999176 295.843719,398.581848 282.474792,387.018005 
	C279.072693,384.075226 275.821381,380.937103 272.257812,378.205658 
	C256.452057,366.090851 241.664978,352.999512 230.510986,336.250397 
	C229.722412,335.066254 228.121643,334.422974 226.898544,333.528229 
	C226.308655,334.046997 225.718750,334.565765 225.128845,335.084503 
	C229.228485,341.373627 232.559555,348.374298 237.587021,353.804382 
	C248.205078,365.272675 259.465607,376.182404 270.910614,386.840149 
	C286.790314,401.627594 299.243591,418.430573 302.353455,440.406677 
	C304.025665,452.223511 304.423004,464.272064 304.642456,476.229919 
	C304.905243,490.545929 304.371979,504.876801 304.156311,519.200806 
	C304.139008,520.352600 303.911621,521.501221 303.781860,522.651306 
	C303.110107,522.660461 302.438354,522.669556 301.766571,522.678711 
	C300.406128,509.313934 299.045715,495.949127 297.597382,481.720886 
	C282.644440,516.448303 267.895874,550.701050 253.147308,584.953796 
	C253.657745,585.235229 254.168182,585.516663 254.678635,585.798157 
	C266.893311,567.639587 278.986603,549.387573 294.100494,533.253113 
	C287.247589,550.670288 286.429321,568.637451 289.689484,586.441895 
	C292.969574,604.354858 302.169861,619.666626 315.625977,633.572510 
	C316.271027,623.536316 315.659821,614.271423 320.538147,605.715637 
	C323.147675,607.115234 325.463623,608.357361 329.154388,610.336853 
	C319.470367,586.139587 318.656219,562.452515 325.569183,538.391235 
	C324.831482,538.308044 324.093811,538.224854 323.356110,538.141663 
	C320.416168,548.813354 317.476227,559.485046 314.486725,570.336670 
	C307.355560,543.425354 322.540222,515.850159 341.309021,507.890198 
	C324.472076,556.834778 342.700684,593.009277 381.743103,622.436462 
	C382.889526,616.871277 383.798065,612.160767 384.841461,607.480408 
	C385.879974,602.821899 387.456238,598.637817 394.136414,600.036987 
	C386.776550,581.220520 381.600861,562.531799 380.974854,542.841492 
	C380.357056,523.409790 380.732025,504.050842 385.346771,485.034454 
	C386.400055,495.598389 386.926056,506.172546 388.064392,516.680359 
	C390.862854,542.512634 401.490662,564.185608 422.736481,579.948792 
	C423.997833,580.884644 425.654541,581.287720 426.717712,582.267273 
	C426.974945,582.345093 427.232178,582.422913 427.489410,582.500671 
	C427.322479,582.337341 427.155518,582.174072 427.037750,581.272217 
	C421.584534,570.592285 419.220581,559.671204 424.063049,547.522827 
	C435.736542,552.754211 446.982208,557.590027 460.119629,554.252869 
	C454.006531,549.934998 448.410217,545.982178 442.813904,542.029358 
	C443.022186,541.632751 443.230499,541.236145 443.438782,540.839600 
	C447.166779,541.679565 450.894806,542.519592 454.811493,543.402161 
	C447.027039,532.912415 438.880402,523.303528 432.319153,512.712402 
	C425.609222,501.881470 421.949768,489.596985 420.336212,476.712799 
	C430.788544,494.483459 444.002563,509.715454 460.693329,521.677368 
	C477.382660,533.638184 495.730408,542.023315 517.240601,546.561890 
	C510.844330,538.204407 503.909576,531.755981 502.140808,521.709351 
	C513.959595,525.661072 524.866577,525.070068 534.718689,519.594666 
	C522.182068,511.407440 509.556000,503.778931 497.619080,495.192322 
	C485.723236,486.635284 475.745331,475.943146 467.149323,463.962646 
	C511.233429,494.136902 557.694641,516.110535 613.223083,509.530334 
	C583.725464,502.895355 558.306213,489.314270 538.572327,465.771179 
	C541.546021,467.083008 544.519714,468.394836 548.031006,470.014740 
	C548.315247,469.944427 548.599426,469.874084 548.883667,469.803741 
	C548.674316,469.450256 548.464966,469.096771 548.012756,468.118622 
	C532.846619,451.873840 522.970215,432.858215 518.143005,411.123932 
	C530.872803,429.621002 545.773926,446.019897 562.807495,460.588226 
	C582.365723,477.315857 612.279907,492.051849 621.095154,491.417633 
	C611.746948,483.973999 603.452820,475.972321 597.573608,464.711731 
	C602.265015,466.215942 605.923767,467.389008 609.582520,468.562103 
	C599.069153,456.431152 592.206604,442.544891 585.228455,428.795959 
	C578.386780,415.315948 570.045715,402.980164 559.359436,392.295227 
	C555.183350,388.119598 550.675232,384.276062 545.251221,379.302887 
	C548.263855,380.132446 550.075134,380.358429 551.638672,381.104034 
	C567.008911,388.434418 581.793335,396.786346 594.529358,408.211792 
	C611.145203,423.117828 627.411194,438.413269 643.969849,453.383942 
	C653.758728,462.233978 663.984680,470.554688 676.639648,477.214569 
	C675.888367,475.121155 675.555725,473.881866 675.017151,472.739716 
	C664.811768,451.096771 655.128540,429.183960 644.182312,407.921570 
	C635.606018,391.262573 626.021179,375.046326 615.796265,359.341858 
	C609.850037,350.208862 601.758179,342.472748 594.631775,334.108093 
	C594.828796,333.825470 595.025818,333.542847 595.222839,333.260254 
	C606.962341,342.213470 618.701782,351.166687 630.441284,360.119904 
	C630.850586,359.796448 631.259888,359.472992 631.669189,359.149536 
	C625.369751,349.897430 619.427734,340.375916 612.697327,331.448730 
	C598.221375,312.247803 579.303589,297.591400 561.154358,282.169495 
	C557.998596,279.488007 555.108582,276.493774 552.095825,273.644012 
	C557.631714,274.885468 562.311646,277.398621 567.267700,279.113708 
	C572.181213,280.814087 577.372925,281.710358 582.442627,282.959290 
	C582.594177,282.453766 582.745728,281.948242 582.897278,281.442719 
	C582.299316,280.681427 581.734253,279.891449 581.098633,279.162994 
	C564.341309,259.958435 548.062134,240.306885 530.676208,221.688950 
	C513.416321,203.206039 492.622375,189.492081 468.461243,181.349518 
	C462.135620,179.217712 455.692413,177.434921 449.303192,175.491837 
	C449.373016,175.103226 449.442810,174.714615 449.512604,174.326004 
	C463.439423,176.149002 477.366241,177.972000 491.293030,179.794998 
	C482.822937,175.271698 474.103149,171.651993 465.509064,167.755112 
	C427.002075,150.294556 386.544556,146.827225 345.273254,152.322845 
	C309.820007,157.043762 276.586761,169.140594 245.506500,186.907837 
	C233.672913,193.672577 221.833664,200.458344 210.329941,207.759109 
	C201.506592,213.358795 197.725204,222.880447 200.483109,230.068787 
	C206.763580,229.147827 211.505646,226.646606 213.744980,219.961349 
	C215.042923,216.086548 217.914810,212.738968 220.078400,209.154114 
	C220.389343,209.337601 220.700287,209.521088 221.011215,209.704575 
	C220.389816,214.135773 219.768417,218.566971 218.999542,224.049850 
	C223.577835,218.946182 227.307709,214.788315 231.037598,210.630432 
	C231.464890,210.932327 231.892181,211.234238 232.319473,211.536148 
	C231.730957,213.188904 231.161789,214.848846 230.550446,216.493118 
	C228.363495,222.375122 228.740891,227.900284 232.737076,232.968689 
	C234.489273,235.191040 236.423782,237.322113 237.829102,239.752731 
	C239.753174,243.080551 241.252106,246.654175 242.965729,250.056900 
	C242.965729,250.056900 243.007675,249.996948 242.297821,250.094513 
	C235.914185,245.610260 229.655762,240.927185 223.062744,236.775436 
	C221.319214,235.677475 218.228729,235.397232 216.296616,236.142014 
	C206.387253,239.961929 196.597702,244.114258 186.919479,248.489273 
	C185.442917,249.156754 183.983795,251.530685 183.845993,253.223587 
	C182.885437,265.023468 187.056046,274.257263 196.782928,281.679840 
	C204.232605,287.364655 210.807556,294.365875 216.997223,301.457458 
	C219.934494,304.822754 222.406219,306.363464 226.860306,305.993225 
	C263.681702,302.932648 300.016296,306.040222 335.831268,315.131744 
	C340.850586,316.405823 345.840271,317.796722 350.843658,319.133545 
	C350.774719,319.308594 350.705780,319.483643 350.636841,319.658661 
	C320.668152,318.201599 290.699463,316.744507 260.730774,315.287415 
	C272.837646,329.594177 289.434326,333.864105 305.595886,339.365326 
	C297.175781,338.593048 288.860474,337.455688 280.826874,335.278778 
	C272.831116,333.112091 265.118225,329.901581 257.281281,327.148773 
	C257.135162,327.433746 256.989075,327.718689 256.842957,328.003632 
	C262.930206,331.370514 269.017426,334.737396 275.104675,338.104279 
	C274.977631,338.488586 274.850586,338.872894 274.723511,339.257233 
	C268.519775,338.609833 262.316040,337.962402 256.112274,337.315002 
	C262.968506,342.855530 270.442719,347.593658 278.142181,351.932007 
	C282.287018,354.267548 286.817993,355.917908 291.244720,357.830658 
	C291.244720,357.830658 291.321503,357.796051 290.550934,358.314087 
	C276.879181,356.877441 264.327393,352.168823 252.051514,345.038788 
M656.979004,396.230011 
	C656.781372,396.654724 656.583740,397.079437 656.612854,398.181061 
	C667.109314,420.426300 677.816711,442.575165 688.034363,464.947723 
	C696.005920,482.402100 706.387878,497.603485 723.135986,507.848602 
	C728.156921,510.920013 732.643188,514.865417 737.341919,518.386047 
	C737.982300,517.616638 738.259277,517.393311 738.391541,517.103760 
	C738.735962,516.349548 739.011841,515.564148 739.324036,514.794861 
	C763.026001,456.384216 769.857788,395.771088 762.086487,333.492584 
	C754.316406,271.223907 731.019897,215.046783 693.084045,165.126663 
	C641.347778,97.046539 574.535828,51.209988 491.257965,30.266434 
	C436.126343,16.401384 380.422455,14.420187 324.883209,26.355423 
	C219.539658,48.993484 138.655106,107.136589 83.482681,199.466888 
	C43.025360,267.171692 28.309191,341.158203 36.792500,419.665466 
	C41.711922,465.191345 55.169895,508.088501 76.543343,548.509338 
	C102.971039,598.488647 139.172058,640.152100 184.233200,674.182556 
	C190.009430,678.544922 195.979095,682.651184 202.257462,687.162231 
	C202.983521,684.957031 203.514862,683.592896 203.883820,682.186157 
	C214.364120,642.227417 228.882355,603.663940 244.664215,565.575867 
	C256.493927,537.025940 269.196747,508.838837 281.158966,480.342468 
	C291.252136,456.298523 288.470215,433.232269 273.137695,412.338867 
	C267.000000,403.975128 259.060181,396.812592 251.347916,389.750580 
	C234.816055,374.612579 219.153381,358.870697 209.255402,337.685883 
	C194.770554,337.685883 180.125275,337.848450 165.486618,337.608154 
	C159.392258,337.508118 158.122116,337.774902 157.102264,344.005768 
	C155.975845,350.887665 155.378311,357.867920 154.814392,364.826721 
	C154.289703,371.301208 154.234619,377.814240 153.686172,384.285980 
	C153.566040,385.703644 152.339584,388.052673 151.434174,388.146088 
	C149.959122,388.298279 148.220474,387.109833 146.802765,386.170624 
	C145.881577,385.560272 145.246735,384.441956 144.629761,383.459442 
	C134.370682,367.122131 126.180908,350.081268 124.408699,330.411285 
	C120.783607,290.176025 142.041809,253.191864 178.963943,236.896698 
	C183.546600,234.874207 185.133896,232.485428 184.783951,227.649994 
	C183.832275,214.500290 189.548798,204.063705 200.131516,197.014374 
	C213.390335,188.182419 227.093491,179.925247 241.088165,172.307938 
	C279.684509,151.299957 320.573639,137.733124 364.845459,135.611435 
	C401.791687,133.840851 437.422180,138.865067 471.557190,153.937866 
	C490.988190,162.517883 510.998413,169.788788 530.776062,177.577438 
	C533.154663,178.514160 535.710693,179.000565 539.501770,180.065857 
	C535.767212,182.556870 533.273682,184.448807 530.568237,185.961777 
	C527.737976,187.544525 524.703918,188.762985 520.881958,190.550964 
	C556.259216,224.751236 586.765381,262.439056 619.207642,299.675476 
	C614.316956,300.359741 610.797058,300.852203 606.623596,301.436157 
	C635.747314,332.004059 654.970215,368.135834 672.309998,405.513672 
	C667.297974,402.584686 662.285950,399.655701 656.979004,396.230011 
M281.148468,664.579590 
	C281.993103,659.067200 283.709564,653.512756 283.445801,648.053894 
	C283.161774,642.176086 281.335968,636.294128 279.629395,630.579224 
	C275.405396,616.433777 274.411835,602.122131 277.133545,587.657104 
	C278.225861,581.851929 280.245270,576.221191 281.975677,570.035645 
	C281.132996,570.638000 280.576263,570.912537 280.180389,571.337036 
	C268.617523,583.734985 262.408051,597.857239 262.360931,615.370850 
	C262.307373,635.286194 275.072083,651.117615 278.083862,670.321289 
	C279.018555,668.651123 279.953247,666.980896 281.148468,664.579590 
M410.102081,621.539856 
	C410.334656,617.542725 410.567261,613.545593 410.834900,608.946594 
	C395.816040,632.142578 403.407166,672.365173 425.658691,688.560913 
	C427.908569,681.054138 428.327454,673.998108 424.296326,666.957825 
	C416.399261,653.165894 409.765442,638.916626 410.102081,621.539856 
M602.013428,684.536682 
	C603.712891,683.325928 605.412292,682.115112 605.999451,681.696838 
	C599.403748,669.869690 592.020447,659.063110 587.155701,647.221863 
	C582.298767,635.399658 579.963989,622.541260 576.573242,610.316406 
	C568.311096,627.473877 579.500916,668.721863 597.749756,687.127197 
	C598.926086,686.427795 600.173035,685.686523 602.013428,684.536682 
M346.467102,712.857727 
	C345.816498,704.506592 345.165894,696.155457 344.485107,687.416748 
	C335.225220,701.918457 334.468933,717.092773 339.570312,732.796753 
	C341.933655,740.072205 349.525696,743.200012 356.384705,740.783203 
	C353.164978,731.743774 349.945831,722.705994 346.467102,712.857727 
M484.911743,671.563599 
	C488.959137,675.927307 493.006531,680.291016 497.053894,684.654724 
	C497.611786,684.250183 498.169647,683.845642 498.727539,683.441101 
	C495.818542,663.975891 479.945496,649.141418 478.417023,629.099121 
	C473.835663,644.057312 475.282990,658.080872 484.911743,671.563599 
M534.192505,705.239868 
	C530.600403,696.084106 527.008240,686.928284 523.330688,677.554749 
	C518.608582,692.782349 520.776550,707.504150 526.576538,722.554443 
	C531.789856,720.512146 536.436829,718.691711 541.280640,716.794189 
	C538.739258,712.644592 536.662903,709.254272 534.192505,705.239868 
M455.588531,740.794250 
	C459.549622,739.970154 463.510712,739.146057 467.444336,738.327698 
	C464.299805,731.068420 460.943115,724.541931 458.640747,717.662598 
	C456.306885,710.689148 455.014862,703.367004 453.144409,695.696777 
	C449.255676,705.542664 449.223022,715.457153 450.492310,725.312073 
	C451.172729,730.595093 453.301178,735.691589 455.588531,740.794250 
M285.415466,701.205322 
	C285.945862,698.965210 286.476257,696.725037 287.344513,693.057800 
	C278.469818,701.972717 272.200958,710.503357 272.697784,722.610901 
	C276.808075,723.980225 280.614624,725.248352 283.703247,726.277283 
	C284.229340,717.812317 284.719879,709.919312 285.415466,701.205322 
M144.819565,296.320435 
	C150.053894,285.695007 157.378220,276.751892 166.572296,269.317657 
	C169.158447,267.226532 171.839386,265.245544 174.339890,263.057526 
	C176.722900,260.972321 177.171494,258.638672 174.585236,256.298615 
	C163.109589,259.820190 150.006500,276.769226 142.241562,298.427887 
	C143.270493,297.723053 143.843277,297.330688 144.819565,296.320435 
M201.994247,323.293762 
	C213.127014,321.089752 224.259781,318.885773 235.392563,316.681763 
	C235.298447,316.231171 235.204330,315.780609 235.110214,315.330017 
	C223.187805,311.998383 201.686493,316.365845 191.790939,324.482544 
	C195.304642,324.080292 198.215408,323.747070 201.994247,323.293762 
M253.484344,586.877319 
	C253.568970,586.653809 253.653610,586.430359 253.738251,586.206848 
	C253.502975,586.275085 253.267715,586.343323 253.484344,586.877319 
z"/>
<path fill="#000000" opacity="0.000000" stroke="none" 
	d="
M321.531342,0.999998 
	C321.141052,1.703040 320.376160,2.834147 319.409424,3.046486 
	C295.657898,8.263414 272.361847,15.018196 249.928024,24.425362 
	C182.654343,52.635227 127.286118,96.097023 84.033348,154.863266 
	C47.377377,204.666626 23.879829,260.103394 14.950073,321.310089 
	C-2.493386,440.871765 30.022736,545.961731 108.655228,636.987549 
	C140.630829,674.002869 178.436646,704.068176 222.127991,726.402222 
	C259.148438,745.326111 298.373169,757.488831 339.390167,763.965576 
	C347.277313,765.210938 355.224823,766.070740 363.133759,767.184631 
	C364.025360,767.310242 364.846771,767.933960 365.350342,768.663330 
	C243.703171,769.000000 122.406349,769.000000 1.054761,769.000000 
	C1.054761,513.113525 1.054761,257.227081 1.054761,1.000000 
	C107.687317,1.000000 214.375000,1.000000 321.531342,0.999998 
z"/>
<path fill="#010100" opacity="0.000000" stroke="none" 
	d="
M437.468658,769.000000 
	C437.608948,768.395874 438.172974,767.318359 438.833252,767.255737 
	C465.588501,764.718018 491.755463,759.207886 517.396851,751.309448 
	C571.654785,734.596313 619.661438,707.073364 661.382996,668.396606 
	C704.013489,628.877319 736.930481,582.671570 759.382690,529.057312 
	C783.466797,471.546326 793.309265,411.717743 788.291260,349.504333 
	C782.168640,273.595032 755.340149,205.527069 708.652161,145.732483 
	C650.392334,71.117561 574.622314,23.454699 481.968811,3.033202 
	C480.732056,2.760617 479.575958,2.122280 478.691101,1.327330 
	C584.634644,1.000000 690.269348,1.000000 795.952026,1.000000 
	C795.952026,256.890442 795.952026,512.780884 795.952026,769.000000 
	C676.645996,769.000000 557.291626,769.000000 437.468658,769.000000 
z"/>
<path fill="#010100" opacity="0.000000" stroke="none" 
	d="
M657.273926,396.726715 
	C662.285950,399.655701 667.297974,402.584686 672.309998,405.513672 
	C654.970215,368.135834 635.747314,332.004059 606.623596,301.436157 
	C610.797058,300.852203 614.316956,300.359741 619.207642,299.675476 
	C586.765381,262.439056 556.259216,224.751236 520.881958,190.550964 
	C524.703918,188.762985 527.737976,187.544525 530.568237,185.961777 
	C533.273682,184.448807 535.767212,182.556870 539.501770,180.065857 
	C535.710693,179.000565 533.154663,178.514160 530.776062,177.577438 
	C510.998413,169.788788 490.988190,162.517883 471.557190,153.937866 
	C437.422180,138.865067 401.791687,133.840851 364.845459,135.611435 
	C320.573639,137.733124 279.684509,151.299957 241.088165,172.307938 
	C227.093491,179.925247 213.390335,188.182419 200.131516,197.014374 
	C189.548798,204.063705 183.832275,214.500290 184.783951,227.649994 
	C185.133896,232.485428 183.546600,234.874207 178.963943,236.896698 
	C142.041809,253.191864 120.783607,290.176025 124.408699,330.411285 
	C126.180908,350.081268 134.370682,367.122131 144.629761,383.459442 
	C145.246735,384.441956 145.881577,385.560272 146.802765,386.170624 
	C148.220474,387.109833 149.959122,388.298279 151.434174,388.146088 
	C152.339584,388.052673 153.566040,385.703644 153.686172,384.285980 
	C154.234619,377.814240 154.289703,371.301208 154.814392,364.826721 
	C155.378311,357.867920 155.975845,350.887665 157.102264,344.005768 
	C158.122116,337.774902 159.392258,337.508118 165.486618,337.608154 
	C180.125275,337.848450 194.770554,337.685883 209.255402,337.685883 
	C219.153381,358.870697 234.816055,374.612579 251.347916,389.750580 
	C259.060181,396.812592 267.000000,403.975128 273.137695,412.338867 
	C288.470215,433.232269 291.252136,456.298523 281.158966,480.342468 
	C269.196747,508.838837 256.493927,537.025940 244.664215,565.575867 
	C228.882355,603.663940 214.364120,642.227417 203.883820,682.186157 
	C203.514862,683.592896 202.983521,684.957031 202.257462,687.162231 
	C195.979095,682.651184 190.009430,678.544922 184.233200,674.182556 
	C139.172058,640.152100 102.971039,598.488647 76.543343,548.509338 
	C55.169895,508.088501 41.711922,465.191345 36.792500,419.665466 
	C28.309191,341.158203 43.025360,267.171692 83.482681,199.466888 
	C138.655106,107.136589 219.539658,48.993484 324.883209,26.355423 
	C380.422455,14.420187 436.126343,16.401384 491.257965,30.266434 
	C574.535828,51.209988 641.347778,97.046539 693.084045,165.126663 
	C731.019897,215.046783 754.316406,271.223907 762.086487,333.492584 
	C769.857788,395.771088 763.026001,456.384216 739.324036,514.794861 
	C739.011841,515.564148 738.735962,516.349548 738.391541,517.103760 
	C738.259277,517.393311 737.982300,517.616638 737.341919,518.386047 
	C732.643188,514.865417 728.156921,510.920013 723.135986,507.848602 
	C706.387878,497.603485 696.005920,482.402100 688.034363,464.947723 
	C677.816711,442.575165 667.109314,420.426300 656.727539,397.655182 
	C656.986084,396.995117 657.130005,396.860901 657.273926,396.726715 
z"/>
<path fill="#020200" opacity="0.000000" stroke="none" 
	d="
M547.493408,469.706665 
	C544.519714,468.394836 541.546021,467.083008 538.572327,465.771179 
	C558.306213,489.314270 583.725464,502.895355 613.223083,509.530334 
	C557.694641,516.110535 511.233429,494.136902 467.149323,463.962646 
	C475.745331,475.943146 485.723236,486.635284 497.619080,495.192322 
	C509.556000,503.778931 522.182068,511.407440 534.718689,519.594666 
	C524.866577,525.070068 513.959595,525.661072 502.140808,521.709351 
	C503.909576,531.755981 510.844330,538.204407 517.240601,546.561890 
	C495.730408,542.023315 477.382660,533.638184 460.693329,521.677368 
	C444.002563,509.715454 430.788544,494.483459 420.336212,476.712799 
	C421.949768,489.596985 425.609222,501.881470 432.319153,512.712402 
	C438.880402,523.303528 447.027039,532.912415 454.811493,543.402161 
	C450.894806,542.519592 447.166779,541.679565 443.438782,540.839600 
	C443.230499,541.236145 443.022186,541.632751 442.813904,542.029358 
	C448.410217,545.982178 454.006531,549.934998 460.119629,554.252869 
	C446.982208,557.590027 435.736542,552.754211 424.063049,547.522827 
	C419.220581,559.671204 421.584534,570.592285 427.046539,581.620972 
	C427.055328,581.969727 427.127289,581.938721 427.127289,581.938721 
	C425.654541,581.287720 423.997833,580.884644 422.736481,579.948792 
	C401.490662,564.185608 390.862854,542.512634 388.064392,516.680359 
	C386.926056,506.172546 386.400055,495.598389 385.346771,485.034454 
	C380.732025,504.050842 380.357056,523.409790 380.974854,542.841492 
	C381.600861,562.531799 386.776550,581.220520 394.136414,600.036987 
	C387.456238,598.637817 385.879974,602.821899 384.841461,607.480408 
	C383.798065,612.160767 382.889526,616.871277 381.743103,622.436462 
	C342.700684,593.009277 324.472076,556.834778 341.309021,507.890198 
	C322.540222,515.850159 307.355560,543.425354 314.486725,570.336670 
	C317.476227,559.485046 320.416168,548.813354 323.356110,538.141663 
	C324.093811,538.224854 324.831482,538.308044 325.569183,538.391235 
	C318.656219,562.452515 319.470367,586.139587 329.154388,610.336853 
	C325.463623,608.357361 323.147675,607.115234 320.538147,605.715637 
	C315.659821,614.271423 316.271027,623.536316 315.625977,633.572510 
	C302.169861,619.666626 292.969574,604.354858 289.689484,586.441895 
	C286.429321,568.637451 287.247589,550.670288 294.100494,533.253113 
	C278.986603,549.387573 266.893311,567.639587 254.678635,585.798157 
	C254.168182,585.516663 253.657745,585.235229 253.147308,584.953796 
	C267.895874,550.701050 282.644440,516.448303 297.597382,481.720886 
	C299.045715,495.949127 300.406128,509.313934 301.766571,522.678711 
	C302.438354,522.669556 303.110107,522.660461 303.781860,522.651306 
	C303.911621,521.501221 304.139008,520.352600 304.156311,519.200806 
	C304.371979,504.876801 304.905243,490.545929 304.642456,476.229919 
	C304.423004,464.272064 304.025665,452.223511 302.353455,440.406677 
	C299.243591,418.430573 286.790314,401.627594 270.910614,386.840149 
	C259.465607,376.182404 248.205078,365.272675 237.587021,353.804382 
	C232.559555,348.374298 229.228485,341.373627 225.128845,335.084503 
	C225.718750,334.565765 226.308655,334.046997 226.898544,333.528229 
	C228.121643,334.422974 229.722412,335.066254 230.510986,336.250397 
	C241.664978,352.999512 256.452057,366.090851 272.257812,378.205658 
	C275.821381,380.937103 279.072693,384.075226 282.474792,387.018005 
	C295.843719,398.581848 304.056519,412.999176 306.231232,430.760529 
	C306.689087,430.709534 307.146973,430.658569 307.604828,430.607574 
	C307.604828,426.989044 308.010254,423.316406 307.535797,419.761200 
	C305.279175,402.850891 297.062134,389.252441 284.496613,377.839661 
	C273.413330,367.773132 262.855957,357.127502 252.151550,346.219971 
	C252.236694,345.702362 252.516510,345.295532 252.516510,345.295532 
	C264.327393,352.168823 276.879181,356.877441 290.704224,358.218048 
	C291.091492,358.281921 291.325500,358.441864 291.559509,358.601807 
	C291.431244,358.360321 291.302979,358.118866 291.174744,357.877380 
	C286.817993,355.917908 282.287018,354.267548 278.142181,351.932007 
	C270.442719,347.593658 262.968506,342.855530 256.112274,337.315002 
	C262.316040,337.962402 268.519775,338.609833 274.723511,339.257233 
	C274.850586,338.872894 274.977631,338.488586 275.104675,338.104279 
	C269.017426,334.737396 262.930206,331.370514 256.842957,328.003632 
	C256.989075,327.718689 257.135162,327.433746 257.281281,327.148773 
	C265.118225,329.901581 272.831116,333.112091 280.826874,335.278778 
	C288.860474,337.455688 297.175781,338.593048 305.595886,339.365326 
	C289.434326,333.864105 272.837646,329.594177 260.730774,315.287415 
	C290.699463,316.744507 320.668152,318.201599 350.636841,319.658661 
	C350.705780,319.483643 350.774719,319.308594 350.843658,319.133545 
	C345.840271,317.796722 340.850586,316.405823 335.831268,315.131744 
	C300.016296,306.040222 263.681702,302.932648 226.860306,305.993225 
	C222.406219,306.363464 219.934494,304.822754 216.997223,301.457458 
	C210.807556,294.365875 204.232605,287.364655 196.782928,281.679840 
	C187.056046,274.257263 182.885437,265.023468 183.845993,253.223587 
	C183.983795,251.530685 185.442917,249.156754 186.919479,248.489273 
	C196.597702,244.114258 206.387253,239.961929 216.296616,236.142014 
	C218.228729,235.397232 221.319214,235.677475 223.062744,236.775436 
	C229.655762,240.927185 235.914185,245.610260 242.708618,250.245758 
	C243.269363,250.287384 243.419281,250.177780 243.569214,250.068176 
	C243.357224,250.086273 243.145218,250.104370 242.933228,250.122467 
	C241.252106,246.654175 239.753174,243.080551 237.829102,239.752731 
	C236.423782,237.322113 234.489273,235.191040 232.737076,232.968689 
	C228.740891,227.900284 228.363495,222.375122 230.550446,216.493118 
	C231.161789,214.848846 231.730957,213.188904 232.319473,211.536148 
	C231.892181,211.234238 231.464890,210.932327 231.037598,210.630432 
	C227.307709,214.788315 223.577835,218.946182 218.999542,224.049850 
	C219.768417,218.566971 220.389816,214.135773 221.011215,209.704575 
	C220.700287,209.521088 220.389343,209.337601 220.078400,209.154114 
	C217.914810,212.738968 215.042923,216.086548 213.744980,219.961349 
	C211.505646,226.646606 206.763580,229.147827 200.483109,230.068787 
	C197.725204,222.880447 201.506592,213.358795 210.329941,207.759109 
	C221.833664,200.458344 233.672913,193.672577 245.506500,186.907837 
	C276.586761,169.140594 309.820007,157.043762 345.273254,152.322845 
	C386.544556,146.827225 427.002075,150.294556 465.509064,167.755112 
	C474.103149,171.651993 482.822937,175.271698 491.293030,179.794998 
	C477.366241,177.972000 463.439423,176.149002 449.512604,174.326004 
	C449.442810,174.714615 449.373016,175.103226 449.303192,175.491837 
	C455.692413,177.434921 462.135620,179.217712 468.461243,181.349518 
	C492.622375,189.492081 513.416321,203.206039 530.676208,221.688950 
	C548.062134,240.306885 564.341309,259.958435 581.098633,279.162994 
	C581.734253,279.891449 582.299316,280.681427 582.897278,281.442719 
	C582.745728,281.948242 582.594177,282.453766 582.442627,282.959290 
	C577.372925,281.710358 572.181213,280.814087 567.267700,279.113708 
	C562.311646,277.398621 557.631714,274.885468 552.095825,273.644012 
	C555.108582,276.493774 557.998596,279.488007 561.154358,282.169495 
	C579.303589,297.591400 598.221375,312.247803 612.697327,331.448730 
	C619.427734,340.375916 625.369751,349.897430 631.669189,359.149536 
	C631.259888,359.472992 630.850586,359.796448 630.441284,360.119904 
	C618.701782,351.166687 606.962341,342.213470 595.222839,333.260254 
	C595.025818,333.542847 594.828796,333.825470 594.631775,334.108093 
	C601.758179,342.472748 609.850037,350.208862 615.796265,359.341858 
	C626.021179,375.046326 635.606018,391.262573 644.182312,407.921570 
	C655.128540,429.183960 664.811768,451.096771 675.017151,472.739716 
	C675.555725,473.881866 675.888367,475.121155 676.639648,477.214569 
	C663.984680,470.554688 653.758728,462.233978 643.969849,453.383942 
	C627.411194,438.413269 611.145203,423.117828 594.529358,408.211792 
	C581.793335,396.786346 567.008911,388.434418 551.638672,381.104034 
	C550.075134,380.358429 548.263855,380.132446 545.251221,379.302887 
	C550.675232,384.276062 555.183350,388.119598 559.359436,392.295227 
	C570.045715,402.980164 578.386780,415.315948 585.228455,428.795959 
	C592.206604,442.544891 599.069153,456.431152 609.582520,468.562103 
	C605.923767,467.389008 602.265015,466.215942 597.573608,464.711731 
	C603.452820,475.972321 611.746948,483.973999 621.095154,491.417633 
	C612.279907,492.051849 582.365723,477.315857 562.807495,460.588226 
	C545.773926,446.019897 530.872803,429.621002 518.143005,411.123932 
	C522.970215,432.858215 532.846619,451.873840 547.934204,468.664307 
	C547.734863,469.375580 547.614136,469.541107 547.493408,469.706665 
M257.047089,265.402618 
	C257.442078,265.014343 257.837036,264.626038 258.884460,264.036774 
	C264.520599,259.791534 269.988403,255.225586 277.448120,254.376602 
	C270.803833,259.536774 264.159576,264.696930 257.515320,269.857086 
	C257.746094,270.120605 257.976868,270.384155 258.207642,270.647705 
	C266.971619,266.196716 275.735596,261.745758 284.835205,257.772552 
	C284.962463,257.919769 285.089722,258.067017 284.922852,258.818481 
	C281.622650,261.668793 278.322449,264.519104 275.022247,267.369385 
	C275.180450,267.596436 275.338684,267.823517 275.496887,268.050568 
	C280.251129,266.923920 285.005341,265.797272 291.010071,264.374268 
	C286.941254,269.456512 283.747131,273.446198 280.336121,277.706787 
	C281.375214,277.976227 281.559113,278.085907 281.637024,278.034576 
	C282.464996,277.489563 283.348175,276.999329 284.080444,276.342682 
	C289.796967,271.216309 295.902466,270.934906 302.445526,274.665527 
	C306.198853,276.805542 310.011993,278.845551 313.847168,280.836273 
	C331.287567,289.889099 355.053009,289.791046 370.555511,273.495117 
	C375.489746,268.308350 380.721130,263.405609 385.752655,258.309784 
	C399.060120,244.832275 415.003693,241.496292 433.011627,245.854767 
	C436.342926,246.661026 439.726898,247.249435 442.842407,248.398590 
	C443.106903,248.371582 443.371368,248.344559 443.635864,248.317535 
	C443.414337,248.221085 443.192810,248.124634 442.938080,247.332718 
	C430.283539,237.920425 415.723877,233.363541 400.203918,231.254028 
	C400.261414,230.815292 400.318909,230.376572 400.376404,229.937836 
	C406.808807,229.445770 413.241211,228.953690 419.673615,228.461624 
	C419.758820,228.108688 419.844055,227.755768 419.929260,227.402847 
	C408.771454,224.883240 397.613678,222.363632 385.040161,219.524353 
	C393.242340,218.132217 399.989471,216.987045 406.736572,215.841873 
	C389.734619,213.004227 372.826294,213.631470 355.925812,216.189178 
	C355.812927,215.721588 355.700043,215.253998 355.587158,214.786407 
	C364.869354,211.284729 374.151581,207.783051 383.433777,204.281372 
	C381.014618,204.013870 378.669128,204.035446 376.437195,204.549927 
	C365.438263,207.085312 354.394623,209.475845 343.507141,212.434189 
	C326.048584,217.177994 308.700531,222.328384 290.841736,226.879700 
	C290.675537,226.750916 290.509338,226.622131 290.681213,225.800949 
	C289.772980,225.304504 288.758453,224.255615 287.974701,224.406372 
	C284.404388,225.093216 280.942169,226.382141 277.361481,226.967361 
	C268.828033,228.362045 260.213287,229.286407 251.718155,230.867065 
	C249.886505,231.207870 248.420578,233.514206 246.786179,234.915146 
	C248.370422,235.815277 249.858307,237.161621 251.557678,237.528595 
	C255.966080,238.480621 256.542603,240.735687 254.514221,244.318558 
	C252.755127,247.425690 251.014694,250.543365 248.589920,254.859955 
	C256.123749,249.567459 262.614685,245.007568 269.105621,240.447693 
	C269.387726,240.855453 269.669830,241.263214 269.951935,241.670975 
	C267.240784,244.618088 264.529633,247.565186 260.858490,251.555847 
	C266.687714,248.761398 271.115143,246.638977 275.879333,244.873993 
	C275.879333,244.873993 276.223663,245.224121 275.933868,245.834000 
	C269.679291,251.679047 263.424713,257.524109 256.744476,263.677917 
	C256.483246,264.107147 256.222015,264.536407 255.418198,265.178070 
	C255.412003,265.462982 255.405807,265.747864 255.399628,266.032776 
	C255.780792,265.911469 256.161957,265.790161 257.047089,265.402618 
M409.287964,397.318024 
	C408.945618,397.263580 408.603271,397.209137 408.260925,397.154663 
	C408.501831,397.440948 408.742737,397.727203 408.923218,398.737793 
	C423.439911,428.032410 450.480682,440.568817 472.043640,435.900146 
	C448.794830,426.864197 426.005035,417.386322 409.287964,397.318024 
M553.754578,355.360840 
	C554.043518,355.373627 554.332397,355.386414 554.621338,355.399200 
	C554.410095,355.269928 554.198792,355.140656 554.015808,354.319031 
	C534.987671,332.242218 511.810608,316.191315 484.631927,305.920227 
	C484.546173,306.800354 484.783112,307.240570 485.148132,307.501801 
	C505.677795,322.196289 526.192017,336.912689 546.796021,351.502228 
	C548.958984,353.033783 551.658203,353.807983 553.754578,355.360840 
M589.862793,351.838684 
	C590.132019,352.141418 590.401306,352.444183 590.670532,352.746918 
	C590.655762,352.001160 590.640991,351.255432 590.303162,349.902222 
	C579.987793,337.957611 570.443787,325.222076 559.187317,314.242310 
	C539.237061,294.782562 516.484680,279.274384 489.173920,271.648224 
	C484.157745,270.247498 478.980804,269.422760 473.878052,268.332184 
	C473.776001,268.771362 473.673920,269.210541 473.571838,269.649719 
	C501.784851,279.143860 527.082336,293.910400 549.544983,313.214966 
	C563.517273,325.222870 576.408936,338.488159 589.862793,351.838684 
M259.610107,299.565186 
	C290.674835,300.577576 321.263794,305.239319 351.585693,311.949707 
	C332.037811,296.101318 245.835907,286.205292 228.872116,297.974274 
	C239.193115,298.521149 248.919205,299.036530 259.610107,299.565186 
M405.204071,477.222260 
	C395.185059,455.724365 385.420166,434.102173 374.999695,412.800659 
	C371.662201,405.978119 366.590607,400.003906 362.312439,393.641571 
	C368.523102,413.684479 395.168243,475.034973 406.121399,479.918701 
	C405.895935,479.116577 405.725677,478.510834 405.204071,477.222260 
M461.388550,398.100372 
	C476.698792,408.367432 493.361420,414.381348 511.863739,414.596375 
	C498.367676,407.769135 484.462189,401.849274 471.244415,394.664246 
	C458.189911,387.567932 445.830688,379.192627 433.166412,371.378418 
	C432.873291,371.696747 432.580170,372.015076 432.287018,372.333374 
	C441.777863,380.804810 451.268677,389.276215 461.388550,398.100372 
M511.253296,382.217804 
	C523.536377,387.944000 535.819458,393.670227 548.102539,399.396423 
	C541.906616,390.134338 479.104095,356.898743 470.832733,358.445648 
	C484.072693,366.281677 497.312653,374.117706 511.253296,382.217804 
M202.249405,261.760651 
	C199.931015,264.595276 201.629471,267.059875 203.598984,268.674652 
	C207.784393,272.106293 212.206589,275.331482 216.877304,278.046875 
	C218.656723,279.081329 222.298538,279.470215 223.457626,278.393829 
	C225.059616,276.906128 225.986023,273.642212 225.687729,271.334717 
	C224.235626,260.101776 212.419449,255.029968 202.249405,261.760651 
M221.866272,208.559906 
	C221.685135,208.491333 221.503983,208.422745 221.322830,208.354172 
	C221.379440,208.549225 221.436035,208.744293 221.866272,208.559906 
z"/>
<path fill="#050501" opacity="0.000000" stroke="none" 
	d="
M554.267212,580.501648 
	C568.027710,551.930237 591.001282,538.260376 622.461975,536.675476 
	C656.282959,534.971619 686.430603,546.235596 715.941345,560.263611 
	C715.941345,560.844910 715.986145,561.026733 715.934875,561.175476 
	C712.073120,572.375427 710.996399,572.888855 700.441345,568.161438 
	C675.503357,556.992188 649.903809,548.356628 622.129028,549.067444 
	C602.563354,549.568176 584.209412,554.424011 568.822205,567.178406 
	C564.005737,571.170654 560.154053,576.326660 555.323975,580.906128 
	C554.613831,580.742065 554.440491,580.621887 554.267212,580.501648 
z"/>
<path fill="#060602" opacity="0.000000" stroke="none" 
	d="
M281.018188,664.945129 
	C279.953247,666.980896 279.018555,668.651123 278.083862,670.321289 
	C275.072083,651.117615 262.307373,635.286194 262.360931,615.370850 
	C262.408051,597.857239 268.617523,583.734985 280.180389,571.337036 
	C280.576263,570.912537 281.132996,570.638000 281.975677,570.035645 
	C280.245270,576.221191 278.225861,581.851929 277.133545,587.657104 
	C274.411835,602.122131 275.405396,616.433777 279.629395,630.579224 
	C281.335968,636.294128 283.161774,642.176086 283.445801,648.053894 
	C283.709564,653.512756 281.993103,659.067200 281.018188,664.945129 
z"/>
<path fill="#060602" opacity="0.000000" stroke="none" 
	d="
M248.579636,615.506226 
	C239.037170,644.043152 234.632095,673.568604 232.237259,704.254944 
	C227.452774,701.439087 223.376266,699.231506 219.551514,696.650818 
	C218.625916,696.026245 217.875732,694.006348 218.150864,692.904114 
	C224.539536,667.307678 229.660812,641.242065 244.514420,618.653320 
	C245.332062,617.409912 246.332611,616.286865 247.737320,615.159668 
	C248.226639,615.211487 248.579636,615.506226 248.579636,615.506226 
z"/>
<path fill="#060602" opacity="0.000000" stroke="none" 
	d="
M410.101624,622.006592 
	C409.765442,638.916626 416.399261,653.165894 424.296326,666.957825 
	C428.327454,673.998108 427.908569,681.054138 425.658691,688.560913 
	C403.407166,672.365173 395.816040,632.142578 410.834900,608.946594 
	C410.567261,613.545593 410.334656,617.542725 410.101624,622.006592 
z"/>
<path fill="#070702" opacity="0.000000" stroke="none" 
	d="
M601.716675,684.740967 
	C600.173035,685.686523 598.926086,686.427795 597.749756,687.127197 
	C579.500916,668.721863 568.311096,627.473877 576.573242,610.316406 
	C579.963989,622.541260 582.298767,635.399658 587.155701,647.221863 
	C592.020447,659.063110 599.403748,669.869690 605.999451,681.696838 
	C605.412292,682.115112 603.712891,683.325928 601.716675,684.740967 
z"/>
<path fill="#0B0B03" opacity="0.000000" stroke="none" 
	d="
M635.447388,477.511993 
	C652.899536,482.313965 669.112061,490.091614 684.276123,499.691376 
	C700.271667,509.817596 715.513672,521.134277 731.164856,531.986389 
	C730.556335,533.712402 730.268616,534.797852 729.793762,535.794128 
	C729.379395,536.663330 728.754272,537.431946 727.858643,538.800781 
	C725.793274,537.154114 723.958984,535.617859 722.049927,534.180969 
	C699.320190,517.072876 676.661987,499.848419 651.442871,486.434418 
	C646.172241,483.630981 640.663025,481.276062 635.221802,478.262634 
	C635.179810,477.810822 635.447388,477.511993 635.447388,477.511993 
z"/>
<path fill="#050501" opacity="0.000000" stroke="none" 
	d="
M346.596893,713.262939 
	C349.945831,722.705994 353.164978,731.743774 356.384705,740.783203 
	C349.525696,743.200012 341.933655,740.072205 339.570312,732.796753 
	C334.468933,717.092773 335.225220,701.918457 344.485107,687.416748 
	C345.165894,696.155457 345.816498,704.506592 346.596893,713.262939 
z"/>
<path fill="#080802" opacity="0.000000" stroke="none" 
	d="
M484.691833,671.279480 
	C475.282990,658.080872 473.835663,644.057312 478.417023,629.099121 
	C479.945496,649.141418 495.818542,663.975891 498.727539,683.441101 
	C498.169647,683.845642 497.611786,684.250183 497.053894,684.654724 
	C493.006531,680.291016 488.959137,675.927307 484.691833,671.279480 
z"/>
<path fill="#070702" opacity="0.000000" stroke="none" 
	d="
M534.389526,705.551880 
	C536.662903,709.254272 538.739258,712.644592 541.280640,716.794189 
	C536.436829,718.691711 531.789856,720.512146 526.576538,722.554443 
	C520.776550,707.504150 518.608582,692.782349 523.330688,677.554749 
	C527.008240,686.928284 530.600403,696.084106 534.389526,705.551880 
z"/>
<path fill="#080802" opacity="0.000000" stroke="none" 
	d="
M455.182373,740.833252 
	C453.301178,735.691589 451.172729,730.595093 450.492310,725.312073 
	C449.223022,715.457153 449.255676,705.542664 453.144409,695.696777 
	C455.014862,703.367004 456.306885,710.689148 458.640747,717.662598 
	C460.943115,724.541931 464.299805,731.068420 467.444336,738.327698 
	C463.510712,739.146057 459.549622,739.970154 455.182373,740.833252 
z"/>
<path fill="#080802" opacity="0.000000" stroke="none" 
	d="
M285.312927,701.615784 
	C284.719879,709.919312 284.229340,717.812317 283.703247,726.277283 
	C280.614624,725.248352 276.808075,723.980225 272.697784,722.610901 
	C272.200958,710.503357 278.469818,701.972717 287.344513,693.057800 
	C286.476257,696.725037 285.945862,698.965210 285.312927,701.615784 
z"/>
<path fill="#0D0D03" opacity="0.000000" stroke="none" 
	d="
M144.617813,296.629395 
	C143.843277,297.330688 143.270493,297.723053 142.241562,298.427887 
	C150.006500,276.769226 163.109589,259.820190 174.585236,256.298615 
	C177.171494,258.638672 176.722900,260.972321 174.339890,263.057526 
	C171.839386,265.245544 169.158447,267.226532 166.572296,269.317657 
	C157.378220,276.751892 150.053894,285.695007 144.617813,296.629395 
z"/>
<path fill="#111104" opacity="0.000000" stroke="none" 
	d="
M201.560211,323.353821 
	C198.215408,323.747070 195.304642,324.080292 191.790939,324.482544 
	C201.686493,316.365845 223.187805,311.998383 235.110214,315.330017 
	C235.204330,315.780609 235.298447,316.231171 235.392563,316.681763 
	C224.259781,318.885773 213.127014,321.089752 201.560211,323.353821 
z"/>
<path fill="#0B0B03" opacity="0.000000" stroke="none" 
	d="
M635.042847,477.957336 
	C634.315369,477.831024 633.724915,477.558167 633.134399,477.285339 
	C633.708557,477.229889 634.282715,477.174408 635.152100,477.315491 
	C635.447388,477.511993 635.179810,477.810822 635.042847,477.957336 
z"/>
<path fill="#010100" opacity="0.000000" stroke="none" 
	d="
M656.614136,397.316711 
	C656.583740,397.079437 656.781372,396.654724 657.126465,396.478363 
	C657.130005,396.860901 656.986084,396.995117 656.614136,397.316711 
z"/>
<path fill="#020200" opacity="0.000000" stroke="none" 
	d="
M252.076614,345.890320 
	C251.722305,345.793365 251.528061,345.508484 251.333817,345.223602 
	C251.573044,345.161987 251.812271,345.100372 252.284012,345.167175 
	C252.516510,345.295532 252.236694,345.702362 252.076614,345.890320 
z"/>
<path fill="#060602" opacity="0.000000" stroke="none" 
	d="
M248.061127,615.051880 
	C248.153732,614.667297 248.411850,614.442322 248.669952,614.217346 
	C248.733368,614.486145 248.796783,614.754883 248.719910,615.264954 
	C248.579636,615.506226 248.226639,615.211487 248.061127,615.051880 
z"/>
<path fill="#020200" opacity="0.000000" stroke="none" 
	d="
M253.258392,586.644409 
	C253.267715,586.343323 253.502975,586.275085 253.738251,586.206848 
	C253.653610,586.430359 253.568970,586.653809 253.258392,586.644409 
z"/>
<path fill="#020200" opacity="0.000000" stroke="none" 
	d="
M427.021973,581.990234 
	C427.155518,582.174072 427.322479,582.337341 427.489410,582.500671 
	C427.232178,582.422913 426.974945,582.345093 426.922485,582.103027 
	C427.127289,581.938721 427.055328,581.969727 427.021973,581.990234 
z"/>
<path fill="#050501" opacity="0.000000" stroke="none" 
	d="
M555.028931,581.066040 
	C554.927856,581.440857 554.584900,581.611816 554.241943,581.782837 
	C554.161743,581.523438 554.081604,581.264099 554.134338,580.753174 
	C554.440491,580.621887 554.613831,580.742065 555.028931,581.066040 
z"/>
<path fill="#020200" opacity="0.000000" stroke="none" 
	d="
M548.055542,468.976685 
	C548.464966,469.096771 548.674316,469.450256 548.883667,469.803741 
	C548.599426,469.874084 548.315247,469.944427 547.762207,469.860718 
	C547.614136,469.541107 547.734863,469.375580 548.055542,468.976685 
z"/>
<path fill="#F4F43F" opacity="1.000000" stroke="none" 
	d="
M275.542572,244.516541 
	C271.115143,246.638977 266.687714,248.761398 260.858490,251.555847 
	C264.529633,247.565186 267.240784,244.618088 269.951935,241.670975 
	C269.669830,241.263214 269.387726,240.855453 269.105621,240.447693 
	C262.614685,245.007568 256.123749,249.567459 248.589920,254.859955 
	C251.014694,250.543365 252.755127,247.425690 254.514221,244.318558 
	C256.542603,240.735687 255.966080,238.480621 251.557678,237.528595 
	C249.858307,237.161621 248.370422,235.815277 246.786179,234.915146 
	C248.420578,233.514206 249.886505,231.207870 251.718155,230.867065 
	C260.213287,229.286407 268.828033,228.362045 277.361481,226.967361 
	C280.942169,226.382141 284.404388,225.093216 287.974701,224.406372 
	C288.758453,224.255615 289.772980,225.304504 290.423889,226.366928 
	C290.546295,227.057587 290.926025,227.182266 291.305756,227.306946 
	C308.700531,222.328384 326.048584,217.177994 343.507141,212.434189 
	C354.394623,209.475845 365.438263,207.085312 376.437195,204.549927 
	C378.669128,204.035446 381.014618,204.013870 383.433777,204.281372 
	C374.151581,207.783051 364.869354,211.284729 355.587158,214.786407 
	C355.700043,215.253998 355.812927,215.721588 355.925812,216.189178 
	C372.826294,213.631470 389.734619,213.004227 406.736572,215.841873 
	C399.989471,216.987045 393.242340,218.132217 385.040161,219.524353 
	C397.613678,222.363632 408.771454,224.883240 419.929260,227.402847 
	C419.844055,227.755768 419.758820,228.108688 419.673615,228.461624 
	C413.241211,228.953690 406.808807,229.445770 400.376404,229.937836 
	C400.318909,230.376572 400.261414,230.815292 400.203918,231.254028 
	C415.723877,233.363541 430.283539,237.920425 442.982422,247.656616 
	C443.026764,247.980515 443.086578,247.938400 443.086578,247.938400 
	C439.726898,247.249435 436.342926,246.661026 433.011627,245.854767 
	C415.003693,241.496292 399.060120,244.832275 385.752655,258.309784 
	C380.721130,263.405609 375.489746,268.308350 370.555511,273.495117 
	C355.053009,289.791046 331.287567,289.889099 313.847168,280.836273 
	C310.011993,278.845551 306.198853,276.805542 302.445526,274.665527 
	C295.902466,270.934906 289.796967,271.216309 284.080444,276.342682 
	C283.348175,276.999329 282.464996,277.489563 281.637024,278.034576 
	C281.559113,278.085907 281.375214,277.976227 280.336121,277.706787 
	C283.747131,273.446198 286.941254,269.456512 291.010071,264.374268 
	C285.005341,265.797272 280.251129,266.923920 275.496887,268.050568 
	C275.338684,267.823517 275.180450,267.596436 275.022247,267.369385 
	C278.322449,264.519104 281.622650,261.668793 285.319458,258.386261 
	C285.310577,257.734314 284.905090,257.514557 284.499573,257.294800 
	C275.735596,261.745758 266.971619,266.196716 258.207642,270.647705 
	C257.976868,270.384155 257.746094,270.120605 257.515320,269.857086 
	C264.159576,264.696930 270.803833,259.536774 277.448120,254.376602 
	C269.988403,255.225586 264.520599,259.791534 258.302185,263.908630 
	C257.536621,263.643372 257.353394,263.506256 257.170166,263.369171 
	C263.424713,257.524109 269.679291,251.679047 276.328461,245.403366 
	C276.702545,244.711273 276.682037,244.449799 276.661530,244.188339 
	C276.288544,244.297729 275.915558,244.407120 275.542572,244.516541 
M328.759796,232.243683 
	C325.912262,233.135437 322.920502,233.732483 320.271149,235.029205 
	C318.675781,235.810074 316.907806,237.469269 316.422485,239.093796 
	C312.276001,252.972641 325.476135,268.150085 339.836975,266.236023 
	C356.676270,263.991699 364.409485,245.172638 354.997589,229.607605 
	C353.553040,227.218704 352.039459,226.458603 349.351013,227.168259 
	C342.778748,228.903015 336.153656,230.437592 328.759796,232.243683 
M321.396149,270.115784 
	C315.736664,268.688354 310.077209,267.260925 304.417725,265.833527 
	C304.293884,266.308502 304.170044,266.783478 304.046173,267.258453 
	C316.692261,276.158508 330.162262,282.359253 346.391083,278.695160 
	C359.693390,275.691803 368.003326,266.525208 374.770294,255.368851 
	C359.346954,268.167175 343.583099,279.042786 321.396149,270.115784 
M277.982025,253.518204 
	C278.204834,253.594193 278.427612,253.670181 278.650421,253.746170 
	C278.575745,253.516663 278.501068,253.287170 277.982025,253.518204 
z"/>
<path fill="#ECEC3D" opacity="1.000000" stroke="none" 
	d="
M259.127686,299.558533 
	C248.919205,299.036530 239.193115,298.521149 228.872116,297.974274 
	C245.835907,286.205292 332.037811,296.101318 351.585693,311.949707 
	C321.263794,305.239319 290.674835,300.577576 259.127686,299.558533 
z"/>
<path fill="#ECEC3D" opacity="1.000000" stroke="none" 
	d="
M589.785583,351.189117 
	C576.408936,338.488159 563.517273,325.222870 549.544983,313.214966 
	C527.082336,293.910400 501.784851,279.143860 473.571838,269.649719 
	C473.673920,269.210541 473.776001,268.771362 473.878052,268.332184 
	C478.980804,269.422760 484.157745,270.247498 489.173920,271.648224 
	C516.484680,279.274384 539.237061,294.782562 559.187317,314.242310 
	C570.443787,325.222076 579.987793,337.957611 590.248779,350.368652 
	C590.058105,350.953064 589.921875,351.071106 589.785583,351.189117 
z"/>
<path fill="#EEEE3D" opacity="1.000000" stroke="none" 
	d="
M405.379730,477.563660 
	C405.725677,478.510834 405.895935,479.116577 406.121399,479.918701 
	C395.168243,475.034973 368.523102,413.684479 362.312439,393.641571 
	C366.590607,400.003906 371.662201,405.978119 374.999695,412.800659 
	C385.420166,434.102173 395.185059,455.724365 405.379730,477.563660 
z"/>
<path fill="#EEEE3D" opacity="1.000000" stroke="none" 
	d="
M461.074036,397.924011 
	C451.268677,389.276215 441.777863,380.804810 432.287018,372.333374 
	C432.580170,372.015076 432.873291,371.696747 433.166412,371.378418 
	C445.830688,379.192627 458.189911,387.567932 471.244415,394.664246 
	C484.462189,401.849274 498.367676,407.769135 511.863739,414.596375 
	C493.361420,414.381348 476.698792,408.367432 461.074036,397.924011 
z"/>
<path fill="#EFEF3D" opacity="1.000000" stroke="none" 
	d="
M554.108582,354.933563 
	C551.658203,353.807983 548.958984,353.033783 546.796021,351.502228 
	C526.192017,336.912689 505.677795,322.196289 485.148132,307.501801 
	C484.783112,307.240570 484.546173,306.800354 484.631927,305.920227 
	C511.810608,316.191315 534.987671,332.242218 554.031006,354.644226 
	C554.046143,354.969421 554.108582,354.933563 554.108582,354.933563 
z"/>
<path fill="#EDED3D" opacity="1.000000" stroke="none" 
	d="
M510.902954,382.085754 
	C497.312653,374.117706 484.072693,366.281677 470.832733,358.445648 
	C479.104095,356.898743 541.906616,390.134338 548.102539,399.396423 
	C535.819458,393.670227 523.536377,387.944000 510.902954,382.085754 
z"/>
<path fill="#EEEE3D" opacity="1.000000" stroke="none" 
	d="
M409.460968,397.719025 
	C426.005035,417.386322 448.794830,426.864197 472.043640,435.900146 
	C450.480682,440.568817 423.439911,428.032410 409.071350,398.299744 
	C409.219452,397.861664 409.460968,397.719025 409.460968,397.719025 
z"/>
<path fill="#F1F13E" opacity="1.000000" stroke="none" 
	d="
M202.509445,261.489136 
	C212.419449,255.029968 224.235626,260.101776 225.687729,271.334717 
	C225.986023,273.642212 225.059616,276.906128 223.457626,278.393829 
	C222.298538,279.470215 218.656723,279.081329 216.877304,278.046875 
	C212.206589,275.331482 207.784393,272.106293 203.598984,268.674652 
	C201.629471,267.059875 199.931015,264.595276 202.509445,261.489136 
z"/>
<path fill="#F4F43F" opacity="1.000000" stroke="none" 
	d="
M257.975952,264.009155 
	C257.837036,264.626038 257.442078,265.014343 256.654053,265.356171 
	C256.261047,265.309723 255.960770,264.965637 255.960770,264.965637 
	C256.222015,264.536407 256.483246,264.107147 256.957336,263.523560 
	C257.353394,263.506256 257.536621,263.643372 257.975952,264.009155 
z"/>
<path fill="#EEEE3D" opacity="1.000000" stroke="none" 
	d="
M409.101562,397.937561 
	C408.742737,397.727203 408.501831,397.440948 408.260925,397.154663 
	C408.603271,397.209137 408.945618,397.263580 409.374451,397.518524 
	C409.460968,397.719025 409.219452,397.861664 409.101562,397.937561 
z"/>
<path fill="#ECEC3D" opacity="1.000000" stroke="none" 
	d="
M590.410278,350.672363 
	C590.640991,351.255432 590.655762,352.001160 590.670532,352.746918 
	C590.401306,352.444183 590.132019,352.141418 589.824219,351.513916 
	C589.921875,351.071106 590.058105,350.953064 590.410278,350.672363 
z"/>
<path fill="#F7F73F" opacity="1.000000" stroke="none" 
	d="
M291.209717,357.854004 
	C291.302979,358.118866 291.431244,358.360321 291.559509,358.601807 
	C291.325500,358.441864 291.091492,358.281921 291.089508,357.959045 
	C291.321503,357.796051 291.244720,357.830658 291.209717,357.854004 
z"/>
<path fill="#F7F73F" opacity="1.000000" stroke="none" 
	d="
M221.679459,208.749634 
	C221.436035,208.744293 221.379440,208.549225 221.322830,208.354156 
	C221.503983,208.422745 221.685135,208.491333 221.679459,208.749634 
z"/>
<path fill="#F4F43F" opacity="1.000000" stroke="none" 
	d="
M256.402100,265.489319 
	C256.161957,265.790161 255.780792,265.911469 255.399628,266.032776 
	C255.405807,265.747864 255.412003,265.462982 255.689484,265.071838 
	C255.960770,264.965637 256.261047,265.309723 256.402100,265.489319 
z"/>
<path fill="#F4F43F" opacity="1.000000" stroke="none" 
	d="
M442.999023,248.004333 
	C443.192810,248.124634 443.414337,248.221085 443.635864,248.317535 
	C443.371368,248.344559 443.106903,248.371582 442.964478,248.168488 
	C443.086578,247.938400 443.026764,247.980515 442.999023,248.004333 
z"/>
<path fill="#F7F73F" opacity="1.000000" stroke="none" 
	d="
M242.949478,250.089691 
	C243.145218,250.104370 243.357224,250.086273 243.569214,250.068176 
	C243.419281,250.177780 243.269363,250.287384 243.063553,250.196976 
	C243.007675,249.996948 242.965729,250.056900 242.949478,250.089691 
z"/>
<path fill="#EFEF3D" opacity="1.000000" stroke="none" 
	d="
M554.016846,354.990417 
	C554.198792,355.140656 554.410095,355.269928 554.621338,355.399170 
	C554.332397,355.386414 554.043518,355.373627 553.931580,355.147217 
	C554.108582,354.933563 554.046143,354.969421 554.016846,354.990417 
z"/>
<path fill="#070702" opacity="0.000000" stroke="none" 
	d="
M329.154816,232.148224 
	C336.153656,230.437592 342.778748,228.903015 349.351013,227.168259 
	C352.039459,226.458603 353.553040,227.218704 354.997589,229.607605 
	C364.409485,245.172638 356.676270,263.991699 339.836975,266.236023 
	C325.476135,268.150085 312.276001,252.972641 316.422485,239.093796 
	C316.907806,237.469269 318.675781,235.810074 320.271149,235.029205 
	C322.920502,233.732483 325.912262,233.135437 329.154816,232.148224 
M338.279266,255.982910 
	C339.227020,255.703812 340.212250,255.513275 341.116364,255.130920 
	C346.040619,253.048279 348.453796,249.198120 348.003174,244.245239 
	C347.555725,239.327042 343.539581,234.856750 338.690338,233.879288 
	C333.857513,232.905136 329.666962,234.958023 327.109253,239.552750 
	C323.106781,246.742844 327.841553,254.242386 338.279266,255.982910 
z"/>
<path fill="#0E0E04" opacity="0.000000" stroke="none" 
	d="
M321.795776,270.218384 
	C343.583099,279.042786 359.346954,268.167175 374.770294,255.368851 
	C368.003326,266.525208 359.693390,275.691803 346.391083,278.695160 
	C330.162262,282.359253 316.692261,276.158508 304.046173,267.258453 
	C304.170044,266.783478 304.293884,266.308502 304.417725,265.833527 
	C310.077209,267.260925 315.736664,268.688354 321.795776,270.218384 
z"/>
<path fill="#020200" opacity="0.000000" stroke="none" 
	d="
M284.667389,257.533691 
	C284.905090,257.514557 285.310577,257.734314 285.466553,258.084167 
	C285.089722,258.067017 284.962463,257.919769 284.667389,257.533691 
z"/>
<path fill="#020200" opacity="0.000000" stroke="none" 
	d="
M291.073730,227.093323 
	C290.926025,227.182266 290.546295,227.057587 290.254852,226.713120 
	C290.509338,226.622131 290.675537,226.750916 291.073730,227.093323 
z"/>
<path fill="#020200" opacity="0.000000" stroke="none" 
	d="
M275.710938,244.695251 
	C275.915558,244.407120 276.288544,244.297729 276.661530,244.188339 
	C276.682037,244.449799 276.702545,244.711273 276.473358,245.098419 
	C276.223663,245.224121 275.879333,244.873993 275.710938,244.695251 
z"/>
<path fill="#020200" opacity="0.000000" stroke="none" 
	d="
M278.204224,253.287933 
	C278.501068,253.287170 278.575745,253.516663 278.650421,253.746170 
	C278.427612,253.670181 278.204834,253.594193 278.204224,253.287933 
z"/>
<path fill="#F5F53F" opacity="1.000000" stroke="none" 
	d="
M337.882019,255.984940 
	C327.841553,254.242386 323.106781,246.742844 327.109253,239.552750 
	C329.666962,234.958023 333.857513,232.905136 338.690338,233.879288 
	C343.539581,234.856750 347.555725,239.327042 348.003174,244.245239 
	C348.453796,249.198120 346.040619,253.048279 341.116364,255.130920 
	C340.212250,255.513275 339.227020,255.703812 337.882019,255.984940 
z"/>
</svg>